<svg xmlns="http://www.w3.org/2000/svg" version="1.1" xmlns:xlink="http://www.w3.org/1999/xlink" xmlns:svgjs="http://svgjs.com/svgjs" width="1440" height="560" preserveAspectRatio="none" viewBox="0 0 1440 560">
    <g mask="url(&quot;#SvgjsMask1018&quot;)" fill="none">
        <g mask="url(&quot;#SvgjsMask1019&quot;)">
            <path d="M955.5 514.5L955.5 556.5" stroke-width="3.5" stroke="rgba(79, 70, 229, 0.06)"></path>
            <path d="M950.25 514.5 a5.25 5.25 0 1 0 10.5 0 a5.25 5.25 0 1 0 -10.5 0zM950.25 556.5 a5.25 5.25 0 1 0 10.5 0 a5.25 5.25 0 1 0 -10.5 0z" fill="rgba(79, 70, 229, 0.06)"></path>
            <path d="M577.5 430.5L577.5 367.5L913.5 31.5" stroke-width="3.5" stroke="rgba(79, 70, 229, 0.06)"></path>
            <path d="M572.25 430.5 a5.25 5.25 0 1 0 10.5 0 a5.25 5.25 0 1 0 -10.5 0zM908.25 31.5 a5.25 5.25 0 1 0 10.5 0 a5.25 5.25 0 1 0 -10.5 0z" fill="rgba(79, 70, 229, 0.06)"></path>
            <path d="M997.5 262.5L976.5 283.5L976.5 367.5L787.5 556.5L766.5 556.5L682.5 472.5" stroke-width="3.5" stroke="rgba(79, 70, 229, 0.06)"></path>
            <path d="M992.25 262.5 a5.25 5.25 0 1 0 10.5 0 a5.25 5.25 0 1 0 -10.5 0zM677.25 472.5 a5.25 5.25 0 1 0 10.5 0 a5.25 5.25 0 1 0 -10.5 0z" fill="rgba(79, 70, 229, 0.06)"></path>
            <path d="M682.5 367.5L598.5 367.5" stroke-width="3.5" stroke="rgba(79, 70, 229, 0.06)"></path>
            <path d="M677.25 367.5 a5.25 5.25 0 1 0 10.5 0 a5.25 5.25 0 1 0 -10.5 0zM593.25 367.5 a5.25 5.25 0 1 0 10.5 0 a5.25 5.25 0 1 0 -10.5 0z" fill="rgba(79, 70, 229, 0.06)"></path>
            <path d="M724.5 241.5L850.5 115.5L1060.5 115.5L1123.5 52.5" stroke-width="3.5" stroke="rgba(79, 70, 229, 0.06)"></path>
            <path d="M719.25 241.5 a5.25 5.25 0 1 0 10.5 0 a5.25 5.25 0 1 0 -10.5 0zM1118.25 52.5 a5.25 5.25 0 1 0 10.5 0 a5.25 5.25 0 1 0 -10.5 0z" fill="rgba(79, 70, 229, 0.06)"></path>
            <path d="M10.5 304.5L409.5 304.5" stroke-width="3.5" stroke="rgba(79, 70, 229, 0.06)"></path>
            <path d="M5.25 304.5 a5.25 5.25 0 1 0 10.5 0 a5.25 5.25 0 1 0 -10.5 0zM404.25 304.5 a5.25 5.25 0 1 0 10.5 0 a5.25 5.25 0 1 0 -10.5 0z" fill="rgba(79, 70, 229, 0.06)"></path>
            <path d="M1186.5 73.5L1018.5 241.5L976.5 241.5L955.5 220.5L955.5 136.5" stroke-width="3.5" stroke="rgba(79, 70, 229, 0.06)"></path>
            <path d="M1181.25 73.5 a5.25 5.25 0 1 0 10.5 0 a5.25 5.25 0 1 0 -10.5 0zM950.25 136.5 a5.25 5.25 0 1 0 10.5 0 a5.25 5.25 0 1 0 -10.5 0z" fill="rgba(79, 70, 229, 0.06)"></path>
            <path d="M955.5 493.5L976.5 493.5L1081.5 388.5L1081.5 199.5L1165.5 115.5" stroke-width="3.5" stroke="rgba(79, 70, 229, 0.06)"></path>
            <path d="M950.25 493.5 a5.25 5.25 0 1 0 10.5 0 a5.25 5.25 0 1 0 -10.5 0zM1160.25 115.5 a5.25 5.25 0 1 0 10.5 0 a5.25 5.25 0 1 0 -10.5 0z" fill="rgba(79, 70, 229, 0.06)"></path>
            <path d="M94.5 241.5L94.5 220.5L304.5 10.5L472.5 10.5" stroke-width="3.5" stroke="rgba(79, 70, 229, 0.06)"></path>
            <path d="M89.25 241.5 a5.25 5.25 0 1 0 10.5 0 a5.25 5.25 0 1 0 -10.5 0zM467.25 10.5 a5.25 5.25 0 1 0 10.5 0 a5.25 5.25 0 1 0 -10.5 0z" fill="rgba(79, 70, 229, 0.06)"></path>
            <path d="M535.5 115.5L451.5 31.5L346.5 31.5L304.5 73.5L262.5 73.5L136.5 199.5" stroke-width="3.5" stroke="rgba(79, 70, 229, 0.06)"></path>
            <path d="M530.25 115.5 a5.25 5.25 0 1 0 10.5 0 a5.25 5.25 0 1 0 -10.5 0zM131.25 199.5 a5.25 5.25 0 1 0 10.5 0 a5.25 5.25 0 1 0 -10.5 0z" fill="rgba(79, 70, 229, 0.06)"></path>
            <path d="M346.5 409.5L346.5 325.5" stroke-width="3.5" stroke="rgba(79, 70, 229, 0.06)"></path>
            <path d="M341.25 409.5 a5.25 5.25 0 1 0 10.5 0 a5.25 5.25 0 1 0 -10.5 0zM341.25 325.5 a5.25 5.25 0 1 0 10.5 0 a5.25 5.25 0 1 0 -10.5 0z" fill="rgba(79, 70, 229, 0.06)"></path>
            <path d="M913.5 241.5L913.5 220.5L850.5 157.5L850.5 136.5" stroke-width="3.5" stroke="rgba(79, 70, 229, 0.06)"></path>
            <path d="M908.25 241.5 a5.25 5.25 0 1 0 10.5 0 a5.25 5.25 0 1 0 -10.5 0zM845.25 136.5 a5.25 5.25 0 1 0 10.5 0 a5.25 5.25 0 1 0 -10.5 0z" fill="rgba(79, 70, 229, 0.06)"></path>
            <path d="M199.5 241.5L241.5 199.5L262.5 199.5L325.5 136.5L346.5 136.5L493.5 283.5L514.5 283.5L556.5 241.5L598.5 241.5" stroke-width="3.5" stroke="rgba(79, 70, 229, 0.06)"></path>
            <path d="M194.25 241.5 a5.25 5.25 0 1 0 10.5 0 a5.25 5.25 0 1 0 -10.5 0zM593.25 241.5 a5.25 5.25 0 1 0 10.5 0 a5.25 5.25 0 1 0 -10.5 0z" fill="rgba(79, 70, 229, 0.06)"></path>
            <path d="M262.5 115.5L283.5 136.5L304.5 136.5L367.5 73.5L388.5 73.5L409.5 52.5L451.5 52.5L598.5 199.5L661.5 199.5" stroke-width="3.5" stroke="rgba(79, 70, 229, 0.06)"></path>
            <path d="M257.25 115.5 a5.25 5.25 0 1 0 10.5 0 a5.25 5.25 0 1 0 -10.5 0zM656.25 199.5 a5.25 5.25 0 1 0 10.5 0 a5.25 5.25 0 1 0 -10.5 0z" fill="rgba(79, 70, 229, 0.06)"></path>
            <path d="M451.5 136.5L451.5 73.5" stroke-width="3.5" stroke="rgba(79, 70, 229, 0.06)"></path>
            <path d="M446.25 136.5 a5.25 5.25 0 1 0 10.5 0 a5.25 5.25 0 1 0 -10.5 0zM446.25 73.5 a5.25 5.25 0 1 0 10.5 0 a5.25 5.25 0 1 0 -10.5 0z" fill="rgba(79, 70, 229, 0.06)"></path>
            <path d="M1081.5 73.5L1144.5 10.5L1186.5 10.5L1375.5 199.5L1375.5 304.5" stroke-width="3.5" stroke="rgba(79, 70, 229, 0.06)"></path>
            <path d="M1076.25 73.5 a5.25 5.25 0 1 0 10.5 0 a5.25 5.25 0 1 0 -10.5 0zM1370.25 304.5 a5.25 5.25 0 1 0 10.5 0 a5.25 5.25 0 1 0 -10.5 0z" fill="rgba(79, 70, 229, 0.06)"></path>
            <path d="M199.5 178.5L199.5 199.5L115.5 283.5L10.5 283.5" stroke-width="3.5" stroke="rgba(79, 70, 229, 0.06)"></path>
            <path d="M194.25 178.5 a5.25 5.25 0 1 0 10.5 0 a5.25 5.25 0 1 0 -10.5 0zM5.25 283.5 a5.25 5.25 0 1 0 10.5 0 a5.25 5.25 0 1 0 -10.5 0z" fill="rgba(79, 70, 229, 0.06)"></path>
            <path d="M661.5 325.5L640.5 325.5L619.5 346.5" stroke-width="3.5" stroke="rgba(79, 70, 229, 0.06)"></path>
            <path d="M656.25 325.5 a5.25 5.25 0 1 0 10.5 0 a5.25 5.25 0 1 0 -10.5 0zM614.25 346.5 a5.25 5.25 0 1 0 10.5 0 a5.25 5.25 0 1 0 -10.5 0z" fill="rgba(79, 70, 229, 0.06)"></path>
            <path d="M136.5 10.5L136.5 73.5L178.5 115.5" stroke-width="3.5" stroke="rgba(79, 70, 229, 0.06)"></path>
            <path d="M131.25 10.5 a5.25 5.25 0 1 0 10.5 0 a5.25 5.25 0 1 0 -10.5 0zM173.25 115.5 a5.25 5.25 0 1 0 10.5 0 a5.25 5.25 0 1 0 -10.5 0z" fill="rgba(79, 70, 229, 0.06)"></path>
            <path d="M640.5 10.5L493.5 10.5L472.5 31.5" stroke-width="3.5" stroke="rgba(79, 70, 229, 0.06)"></path>
            <path d="M635.25 10.5 a5.25 5.25 0 1 0 10.5 0 a5.25 5.25 0 1 0 -10.5 0zM467.25 31.5 a5.25 5.25 0 1 0 10.5 0 a5.25 5.25 0 1 0 -10.5 0z" fill="rgba(79, 70, 229, 0.06)"></path>
            <path d="M31.5 73.5L115.5 157.5L115.5 178.5L31.5 262.5L10.5 262.5" stroke-width="3.5" stroke="rgba(79, 70, 229, 0.06)"></path>
            <path d="M26.25 73.5 a5.25 5.25 0 1 0 10.5 0 a5.25 5.25 0 1 0 -10.5 0zM5.25 262.5 a5.25 5.25 0 1 0 10.5 0 a5.25 5.25 0 1 0 -10.5 0z" fill="rgba(79, 70, 229, 0.06)"></path>
            <path d="M1375.5 535.5L1102.5 262.5L1102.5 199.5L1165.5 136.5" stroke-width="3.5" stroke="rgba(79, 70, 229, 0.06)"></path>
            <path d="M1370.25 535.5 a5.25 5.25 0 1 0 10.5 0 a5.25 5.25 0 1 0 -10.5 0zM1160.25 136.5 a5.25 5.25 0 1 0 10.5 0 a5.25 5.25 0 1 0 -10.5 0z" fill="rgba(79, 70, 229, 0.06)"></path>
            <path d="M556.5 136.5L598.5 178.5L745.5 178.5L913.5 10.5L955.5 10.5" stroke-width="3.5" stroke="rgba(79, 70, 229, 0.06)"></path>
            <path d="M551.25 136.5 a5.25 5.25 0 1 0 10.5 0 a5.25 5.25 0 1 0 -10.5 0zM950.25 10.5 a5.25 5.25 0 1 0 10.5 0 a5.25 5.25 0 1 0 -10.5 0z" fill="rgba(79, 70, 229, 0.06)"></path>
            <path d="M1375.5 94.5L1333.5 136.5" stroke-width="3.5" stroke="rgba(79, 70, 229, 0.06)"></path>
            <path d="M1370.25 94.5 a5.25 5.25 0 1 0 10.5 0 a5.25 5.25 0 1 0 -10.5 0zM1328.25 136.5 a5.25 5.25 0 1 0 10.5 0 a5.25 5.25 0 1 0 -10.5 0z" fill="rgba(79, 70, 229, 0.06)"></path>
            <path d="M1249.5 556.5L976.5 556.5" stroke-width="3.5" stroke="rgba(79, 70, 229, 0.06)"></path>
            <path d="M1244.25 556.5 a5.25 5.25 0 1 0 10.5 0 a5.25 5.25 0 1 0 -10.5 0zM971.25 556.5 a5.25 5.25 0 1 0 10.5 0 a5.25 5.25 0 1 0 -10.5 0z" fill="rgba(79, 70, 229, 0.06)"></path>
            <path d="M577.5 535.5L367.5 325.5" stroke-width="3.5" stroke="rgba(79, 70, 229, 0.06)"></path>
            <path d="M572.25 535.5 a5.25 5.25 0 1 0 10.5 0 a5.25 5.25 0 1 0 -10.5 0zM362.25 325.5 a5.25 5.25 0 1 0 10.5 0 a5.25 5.25 0 1 0 -10.5 0z" fill="rgba(79, 70, 229, 0.06)"></path>
            <path d="M640.5 556.5L682.5 514.5L682.5 493.5L598.5 409.5L598.5 388.5" stroke-width="3.5" stroke="rgba(79, 70, 229, 0.06)"></path>
            <path d="M635.25 556.5 a5.25 5.25 0 1 0 10.5 0 a5.25 5.25 0 1 0 -10.5 0zM593.25 388.5 a5.25 5.25 0 1 0 10.5 0 a5.25 5.25 0 1 0 -10.5 0z" fill="rgba(79, 70, 229, 0.06)"></path>
            <path d="M1291.5 262.5L1291.5 430.5L1354.5 493.5L1438.5 493.5" stroke-width="3.5" stroke="rgba(79, 70, 229, 0.06)"></path>
            <path d="M1286.25 262.5 a5.25 5.25 0 1 0 10.5 0 a5.25 5.25 0 1 0 -10.5 0zM1433.25 493.5 a5.25 5.25 0 1 0 10.5 0 a5.25 5.25 0 1 0 -10.5 0z" fill="rgba(79, 70, 229, 0.06)"></path>
            <path d="M934.5 472.5L934.5 556.5" stroke-width="3.5" stroke="rgba(79, 70, 229, 0.06)"></path>
            <path d="M929.25 472.5 a5.25 5.25 0 1 0 10.5 0 a5.25 5.25 0 1 0 -10.5 0zM929.25 556.5 a5.25 5.25 0 1 0 10.5 0 a5.25 5.25 0 1 0 -10.5 0z" fill="rgba(79, 70, 229, 0.06)"></path>
            <path d="M388.5 388.5L409.5 388.5L577.5 556.5L619.5 556.5L661.5 514.5L661.5 493.5L598.5 430.5" stroke-width="3.5" stroke="rgba(79, 70, 229, 0.06)"></path>
            <path d="M383.25 388.5 a5.25 5.25 0 1 0 10.5 0 a5.25 5.25 0 1 0 -10.5 0zM593.25 430.5 a5.25 5.25 0 1 0 10.5 0 a5.25 5.25 0 1 0 -10.5 0z" fill="rgba(79, 70, 229, 0.06)"></path>
            <path d="M535.5 472.5L556.5 451.5L556.5 409.5L325.5 178.5L325.5 157.5" stroke-width="3.5" stroke="rgba(79, 70, 229, 0.06)"></path>
            <path d="M530.25 472.5 a5.25 5.25 0 1 0 10.5 0 a5.25 5.25 0 1 0 -10.5 0zM320.25 157.5 a5.25 5.25 0 1 0 10.5 0 a5.25 5.25 0 1 0 -10.5 0z" fill="rgba(79, 70, 229, 0.06)"></path>
            <path d="M703.5 73.5L514.5 73.5L493.5 52.5L493.5 31.5" stroke-width="3.5" stroke="rgba(79, 70, 229, 0.06)"></path>
            <path d="M698.25 73.5 a5.25 5.25 0 1 0 10.5 0 a5.25 5.25 0 1 0 -10.5 0zM488.25 31.5 a5.25 5.25 0 1 0 10.5 0 a5.25 5.25 0 1 0 -10.5 0z" fill="rgba(79, 70, 229, 0.06)"></path>
            <path d="M1270.5 199.5L1165.5 304.5" stroke-width="3.5" stroke="rgba(79, 70, 229, 0.06)"></path>
            <path d="M1265.25 199.5 a5.25 5.25 0 1 0 10.5 0 a5.25 5.25 0 1 0 -10.5 0zM1160.25 304.5 a5.25 5.25 0 1 0 10.5 0 a5.25 5.25 0 1 0 -10.5 0z" fill="rgba(79, 70, 229, 0.06)"></path>
            <path d="M577.5 514.5L640.5 514.5" stroke-width="3.5" stroke="rgba(79, 70, 229, 0.06)"></path>
            <path d="M572.25 514.5 a5.25 5.25 0 1 0 10.5 0 a5.25 5.25 0 1 0 -10.5 0zM635.25 514.5 a5.25 5.25 0 1 0 10.5 0 a5.25 5.25 0 1 0 -10.5 0z" fill="rgba(79, 70, 229, 0.06)"></path>
            <path d="M661.5 262.5L661.5 220.5L682.5 199.5L724.5 199.5" stroke-width="3.5" stroke="rgba(79, 70, 229, 0.06)"></path>
            <path d="M656.25 262.5 a5.25 5.25 0 1 0 10.5 0 a5.25 5.25 0 1 0 -10.5 0zM719.25 199.5 a5.25 5.25 0 1 0 10.5 0 a5.25 5.25 0 1 0 -10.5 0z" fill="rgba(79, 70, 229, 0.06)"></path>
            <path d="M1438.5 262.5L1438.5 388.5L1417.5 409.5L1417.5 472.5" stroke-width="3.5" stroke="rgba(79, 70, 229, 0.06)"></path>
            <path d="M1433.25 262.5 a5.25 5.25 0 1 0 10.5 0 a5.25 5.25 0 1 0 -10.5 0zM1412.25 472.5 a5.25 5.25 0 1 0 10.5 0 a5.25 5.25 0 1 0 -10.5 0z" fill="rgba(79, 70, 229, 0.06)"></path>
            <path d="M1249.5 178.5L1165.5 262.5L1165.5 283.5" stroke-width="3.5" stroke="rgba(79, 70, 229, 0.06)"></path>
            <path d="M1244.25 178.5 a5.25 5.25 0 1 0 10.5 0 a5.25 5.25 0 1 0 -10.5 0zM1160.25 283.5 a5.25 5.25 0 1 0 10.5 0 a5.25 5.25 0 1 0 -10.5 0z" fill="rgba(79, 70, 229, 0.06)"></path>
            <path d="M1144.5 325.5L1375.5 556.5L1438.5 556.5" stroke-width="3.5" stroke="rgba(79, 70, 229, 0.06)"></path>
            <path d="M1139.25 325.5 a5.25 5.25 0 1 0 10.5 0 a5.25 5.25 0 1 0 -10.5 0zM1433.25 556.5 a5.25 5.25 0 1 0 10.5 0 a5.25 5.25 0 1 0 -10.5 0z" fill="rgba(79, 70, 229, 0.06)"></path>
            <path d="M388.5 199.5L367.5 199.5L346.5 178.5L346.5 157.5" stroke-width="3.5" stroke="rgba(79, 70, 229, 0.06)"></path>
            <path d="M383.25 199.5 a5.25 5.25 0 1 0 10.5 0 a5.25 5.25 0 1 0 -10.5 0zM341.25 157.5 a5.25 5.25 0 1 0 10.5 0 a5.25 5.25 0 1 0 -10.5 0z" fill="rgba(79, 70, 229, 0.06)"></path>
            <path d="M850.5 409.5L745.5 514.5" stroke-width="3.5" stroke="rgba(79, 70, 229, 0.06)"></path>
            <path d="M845.25 409.5 a5.25 5.25 0 1 0 10.5 0 a5.25 5.25 0 1 0 -10.5 0zM740.25 514.5 a5.25 5.25 0 1 0 10.5 0 a5.25 5.25 0 1 0 -10.5 0z" fill="rgba(79, 70, 229, 0.06)"></path>
            <path d="M262.5 157.5L220.5 199.5" stroke-width="3.5" stroke="rgba(79, 70, 229, 0.06)"></path>
            <path d="M257.25 157.5 a5.25 5.25 0 1 0 10.5 0 a5.25 5.25 0 1 0 -10.5 0zM215.25 199.5 a5.25 5.25 0 1 0 10.5 0 a5.25 5.25 0 1 0 -10.5 0z" fill="rgba(79, 70, 229, 0.06)"></path>
            <path d="M157.5 199.5L94.5 262.5L52.5 262.5" stroke-width="3.5" stroke="rgba(79, 70, 229, 0.06)"></path>
            <path d="M152.25 199.5 a5.25 5.25 0 1 0 10.5 0 a5.25 5.25 0 1 0 -10.5 0zM47.25 262.5 a5.25 5.25 0 1 0 10.5 0 a5.25 5.25 0 1 0 -10.5 0z" fill="rgba(79, 70, 229, 0.06)"></path>
            <path d="M178.5 409.5L10.5 409.5" stroke-width="3.5" stroke="rgba(79, 70, 229, 0.06)"></path>
            <path d="M173.25 409.5 a5.25 5.25 0 1 0 10.5 0 a5.25 5.25 0 1 0 -10.5 0zM5.25 409.5 a5.25 5.25 0 1 0 10.5 0 a5.25 5.25 0 1 0 -10.5 0z" fill="rgba(79, 70, 229, 0.06)"></path>
            <path d="M241.5 262.5L241.5 220.5" stroke-width="3.5" stroke="rgba(79, 70, 229, 0.06)"></path>
            <path d="M236.25 262.5 a5.25 5.25 0 1 0 10.5 0 a5.25 5.25 0 1 0 -10.5 0zM236.25 220.5 a5.25 5.25 0 1 0 10.5 0 a5.25 5.25 0 1 0 -10.5 0z" fill="rgba(79, 70, 229, 0.06)"></path>
            <path d="M31.5 388.5L199.5 388.5L262.5 325.5L325.5 325.5" stroke-width="3.5" stroke="rgba(79, 70, 229, 0.06)"></path>
            <path d="M26.25 388.5 a5.25 5.25 0 1 0 10.5 0 a5.25 5.25 0 1 0 -10.5 0zM320.25 325.5 a5.25 5.25 0 1 0 10.5 0 a5.25 5.25 0 1 0 -10.5 0z" fill="rgba(79, 70, 229, 0.06)"></path>
            <path d="M1039.5 262.5L1060.5 241.5L1060.5 220.5" stroke-width="3.5" stroke="rgba(79, 70, 229, 0.06)"></path>
            <path d="M1034.25 262.5 a5.25 5.25 0 1 0 10.5 0 a5.25 5.25 0 1 0 -10.5 0zM1055.25 220.5 a5.25 5.25 0 1 0 10.5 0 a5.25 5.25 0 1 0 -10.5 0z" fill="rgba(79, 70, 229, 0.06)"></path>
            <path d="M577.5 199.5L472.5 94.5" stroke-width="3.5" stroke="rgba(79, 70, 229, 0.06)"></path>
            <path d="M572.25 199.5 a5.25 5.25 0 1 0 10.5 0 a5.25 5.25 0 1 0 -10.5 0zM467.25 94.5 a5.25 5.25 0 1 0 10.5 0 a5.25 5.25 0 1 0 -10.5 0z" fill="rgba(79, 70, 229, 0.06)"></path>
            <path d="M1144.5 178.5L1123.5 199.5L1123.5 262.5L1144.5 283.5" stroke-width="3.5" stroke="rgba(79, 70, 229, 0.06)"></path>
            <path d="M1139.25 178.5 a5.25 5.25 0 1 0 10.5 0 a5.25 5.25 0 1 0 -10.5 0zM1139.25 283.5 a5.25 5.25 0 1 0 10.5 0 a5.25 5.25 0 1 0 -10.5 0z" fill="rgba(79, 70, 229, 0.06)"></path>
            <path d="M1291.5 136.5L1354.5 199.5L1354.5 430.5L1396.5 472.5" stroke-width="3.5" stroke="rgba(79, 70, 229, 0.06)"></path>
            <path d="M1286.25 136.5 a5.25 5.25 0 1 0 10.5 0 a5.25 5.25 0 1 0 -10.5 0zM1391.25 472.5 a5.25 5.25 0 1 0 10.5 0 a5.25 5.25 0 1 0 -10.5 0z" fill="rgba(79, 70, 229, 0.06)"></path>
            <path d="M598.5 31.5L619.5 52.5L766.5 52.5L808.5 94.5" stroke-width="3.5" stroke="rgba(79, 70, 229, 0.06)"></path>
            <path d="M593.25 31.5 a5.25 5.25 0 1 0 10.5 0 a5.25 5.25 0 1 0 -10.5 0zM803.25 94.5 a5.25 5.25 0 1 0 10.5 0 a5.25 5.25 0 1 0 -10.5 0z" fill="rgba(79, 70, 229, 0.06)"></path>
            <path d="M1123.5 514.5L1312.5 514.5L1354.5 556.5" stroke-width="3.5" stroke="rgba(79, 70, 229, 0.06)"></path>
            <path d="M1118.25 514.5 a5.25 5.25 0 1 0 10.5 0 a5.25 5.25 0 1 0 -10.5 0zM1349.25 556.5 a5.25 5.25 0 1 0 10.5 0 a5.25 5.25 0 1 0 -10.5 0z" fill="rgba(79, 70, 229, 0.06)"></path>
            <path d="M31.5 514.5L94.5 451.5L94.5 430.5" stroke-width="3.5" stroke="rgba(79, 70, 229, 0.06)"></path>
            <path d="M26.25 514.5 a5.25 5.25 0 1 0 10.5 0 a5.25 5.25 0 1 0 -10.5 0zM89.25 430.5 a5.25 5.25 0 1 0 10.5 0 a5.25 5.25 0 1 0 -10.5 0z" fill="rgba(79, 70, 229, 0.06)"></path>
            <path d="M94.5 157.5L94.5 178.5L31.5 241.5L10.5 241.5" stroke-width="3.5" stroke="rgba(79, 70, 229, 0.06)"></path>
            <path d="M89.25 157.5 a5.25 5.25 0 1 0 10.5 0 a5.25 5.25 0 1 0 -10.5 0zM5.25 241.5 a5.25 5.25 0 1 0 10.5 0 a5.25 5.25 0 1 0 -10.5 0z" fill="rgba(79, 70, 229, 0.06)"></path>
            <path d="M136.5 94.5L115.5 115.5L115.5 136.5L136.5 157.5" stroke-width="3.5" stroke="rgba(79, 70, 229, 0.06)"></path>
            <path d="M131.25 94.5 a5.25 5.25 0 1 0 10.5 0 a5.25 5.25 0 1 0 -10.5 0zM131.25 157.5 a5.25 5.25 0 1 0 10.5 0 a5.25 5.25 0 1 0 -10.5 0z" fill="rgba(79, 70, 229, 0.06)"></path>
            <path d="M94.5 493.5L94.5 472.5L136.5 430.5L367.5 430.5L388.5 451.5L388.5 535.5" stroke-width="3.5" stroke="rgba(79, 70, 229, 0.06)"></path>
            <path d="M89.25 493.5 a5.25 5.25 0 1 0 10.5 0 a5.25 5.25 0 1 0 -10.5 0zM383.25 535.5 a5.25 5.25 0 1 0 10.5 0 a5.25 5.25 0 1 0 -10.5 0z" fill="rgba(79, 70, 229, 0.06)"></path>
            <path d="M1438.5 472.5L1438.5 409.5" stroke-width="3.5" stroke="rgba(79, 70, 229, 0.06)"></path>
            <path d="M1433.25 472.5 a5.25 5.25 0 1 0 10.5 0 a5.25 5.25 0 1 0 -10.5 0zM1433.25 409.5 a5.25 5.25 0 1 0 10.5 0 a5.25 5.25 0 1 0 -10.5 0z" fill="rgba(79, 70, 229, 0.06)"></path>
            <path d="M1018.5 535.5L1018.5 472.5L1144.5 346.5" stroke-width="3.5" stroke="rgba(79, 70, 229, 0.06)"></path>
            <path d="M1013.25 535.5 a5.25 5.25 0 1 0 10.5 0 a5.25 5.25 0 1 0 -10.5 0zM1139.25 346.5 a5.25 5.25 0 1 0 10.5 0 a5.25 5.25 0 1 0 -10.5 0z" fill="rgba(79, 70, 229, 0.06)"></path>
            <path d="M283.5 451.5L136.5 451.5L115.5 472.5L115.5 556.5" stroke-width="3.5" stroke="rgba(79, 70, 229, 0.06)"></path>
            <path d="M278.25 451.5 a5.25 5.25 0 1 0 10.5 0 a5.25 5.25 0 1 0 -10.5 0zM110.25 556.5 a5.25 5.25 0 1 0 10.5 0 a5.25 5.25 0 1 0 -10.5 0z" fill="rgba(79, 70, 229, 0.06)"></path>
            <path d="M178.5 493.5L136.5 493.5" stroke-width="3.5" stroke="rgba(79, 70, 229, 0.06)"></path>
            <path d="M173.25 493.5 a5.25 5.25 0 1 0 10.5 0 a5.25 5.25 0 1 0 -10.5 0zM131.25 493.5 a5.25 5.25 0 1 0 10.5 0 a5.25 5.25 0 1 0 -10.5 0z" fill="rgba(79, 70, 229, 0.06)"></path>
            <path d="M1207.5 535.5L1312.5 535.5L1333.5 556.5" stroke-width="3.5" stroke="rgba(79, 70, 229, 0.06)"></path>
            <path d="M1202.25 535.5 a5.25 5.25 0 1 0 10.5 0 a5.25 5.25 0 1 0 -10.5 0zM1328.25 556.5 a5.25 5.25 0 1 0 10.5 0 a5.25 5.25 0 1 0 -10.5 0z" fill="rgba(79, 70, 229, 0.06)"></path>
            <path d="M52.5 346.5L31.5 325.5L10.5 325.5" stroke-width="3.5" stroke="rgba(79, 70, 229, 0.06)"></path>
            <path d="M47.25 346.5 a5.25 5.25 0 1 0 10.5 0 a5.25 5.25 0 1 0 -10.5 0zM5.25 325.5 a5.25 5.25 0 1 0 10.5 0 a5.25 5.25 0 1 0 -10.5 0z" fill="rgba(79, 70, 229, 0.06)"></path>
            <path d="M1228.5 367.5L1270.5 325.5L1270.5 220.5L1291.5 199.5L1291.5 157.5L1165.5 31.5L1144.5 31.5" stroke-width="3.5" stroke="rgba(79, 70, 229, 0.06)"></path>
            <path d="M1223.25 367.5 a5.25 5.25 0 1 0 10.5 0 a5.25 5.25 0 1 0 -10.5 0zM1139.25 31.5 a5.25 5.25 0 1 0 10.5 0 a5.25 5.25 0 1 0 -10.5 0z" fill="rgba(79, 70, 229, 0.06)"></path>
            <path d="M703.5 451.5L745.5 493.5" stroke-width="3.5" stroke="rgba(79, 70, 229, 0.06)"></path>
            <path d="M698.25 451.5 a5.25 5.25 0 1 0 10.5 0 a5.25 5.25 0 1 0 -10.5 0zM740.25 493.5 a5.25 5.25 0 1 0 10.5 0 a5.25 5.25 0 1 0 -10.5 0z" fill="rgba(79, 70, 229, 0.06)"></path>
            <path d="M1396.5 52.5L1396.5 10.5" stroke-width="3.5" stroke="rgba(79, 70, 229, 0.06)"></path>
            <path d="M1391.25 52.5 a5.25 5.25 0 1 0 10.5 0 a5.25 5.25 0 1 0 -10.5 0zM1391.25 10.5 a5.25 5.25 0 1 0 10.5 0 a5.25 5.25 0 1 0 -10.5 0z" fill="rgba(79, 70, 229, 0.06)"></path>
            <path d="M199.5 535.5L367.5 535.5L388.5 556.5L493.5 556.5L514.5 535.5L535.5 535.5L556.5 556.5" stroke-width="3.5" stroke="rgba(79, 70, 229, 0.06)"></path>
            <path d="M194.25 535.5 a5.25 5.25 0 1 0 10.5 0 a5.25 5.25 0 1 0 -10.5 0zM551.25 556.5 a5.25 5.25 0 1 0 10.5 0 a5.25 5.25 0 1 0 -10.5 0z" fill="rgba(79, 70, 229, 0.06)"></path>
            <path d="M724.5 115.5L787.5 115.5" stroke-width="3.5" stroke="rgba(79, 70, 229, 0.06)"></path>
            <path d="M719.25 115.5 a5.25 5.25 0 1 0 10.5 0 a5.25 5.25 0 1 0 -10.5 0zM782.25 115.5 a5.25 5.25 0 1 0 10.5 0 a5.25 5.25 0 1 0 -10.5 0z" fill="rgba(79, 70, 229, 0.06)"></path>
            <path d="M913.5 472.5L892.5 472.5L808.5 556.5" stroke-width="3.5" stroke="rgba(79, 70, 229, 0.06)"></path>
            <path d="M908.25 472.5 a5.25 5.25 0 1 0 10.5 0 a5.25 5.25 0 1 0 -10.5 0zM803.25 556.5 a5.25 5.25 0 1 0 10.5 0 a5.25 5.25 0 1 0 -10.5 0z" fill="rgba(79, 70, 229, 0.06)"></path>
            <path d="M1417.5 178.5L1375.5 136.5L1354.5 136.5" stroke-width="3.5" stroke="rgba(79, 70, 229, 0.06)"></path>
            <path d="M1412.25 178.5 a5.25 5.25 0 1 0 10.5 0 a5.25 5.25 0 1 0 -10.5 0zM1349.25 136.5 a5.25 5.25 0 1 0 10.5 0 a5.25 5.25 0 1 0 -10.5 0z" fill="rgba(79, 70, 229, 0.06)"></path>
            <path d="M430.5 157.5L430.5 178.5L514.5 262.5" stroke-width="3.5" stroke="rgba(79, 70, 229, 0.06)"></path>
            <path d="M425.25 157.5 a5.25 5.25 0 1 0 10.5 0 a5.25 5.25 0 1 0 -10.5 0zM509.25 262.5 a5.25 5.25 0 1 0 10.5 0 a5.25 5.25 0 1 0 -10.5 0z" fill="rgba(79, 70, 229, 0.06)"></path>
            <path d="M892.5 283.5L808.5 199.5L808.5 178.5L829.5 157.5" stroke-width="3.5" stroke="rgba(79, 70, 229, 0.06)"></path>
            <path d="M887.25 283.5 a5.25 5.25 0 1 0 10.5 0 a5.25 5.25 0 1 0 -10.5 0zM824.25 157.5 a5.25 5.25 0 1 0 10.5 0 a5.25 5.25 0 1 0 -10.5 0z" fill="rgba(79, 70, 229, 0.06)"></path>
            <path d="M1249.5 493.5L1291.5 493.5" stroke-width="3.5" stroke="rgba(79, 70, 229, 0.06)"></path>
            <path d="M1244.25 493.5 a5.25 5.25 0 1 0 10.5 0 a5.25 5.25 0 1 0 -10.5 0zM1286.25 493.5 a5.25 5.25 0 1 0 10.5 0 a5.25 5.25 0 1 0 -10.5 0z" fill="rgba(79, 70, 229, 0.06)"></path>
            <path d="M808.5 262.5L703.5 262.5L661.5 304.5" stroke-width="3.5" stroke="rgba(79, 70, 229, 0.06)"></path>
            <path d="M803.25 262.5 a5.25 5.25 0 1 0 10.5 0 a5.25 5.25 0 1 0 -10.5 0zM656.25 304.5 a5.25 5.25 0 1 0 10.5 0 a5.25 5.25 0 1 0 -10.5 0z" fill="rgba(79, 70, 229, 0.06)"></path>
            <path d="M472.5 367.5L430.5 325.5L388.5 325.5" stroke-width="3.5" stroke="rgba(79, 70, 229, 0.06)"></path>
            <path d="M467.25 367.5 a5.25 5.25 0 1 0 10.5 0 a5.25 5.25 0 1 0 -10.5 0zM383.25 325.5 a5.25 5.25 0 1 0 10.5 0 a5.25 5.25 0 1 0 -10.5 0z" fill="rgba(79, 70, 229, 0.06)"></path>
            <path d="M1207.5 346.5L1228.5 325.5L1249.5 325.5" stroke-width="3.5" stroke="rgba(79, 70, 229, 0.06)"></path>
            <path d="M1202.25 346.5 a5.25 5.25 0 1 0 10.5 0 a5.25 5.25 0 1 0 -10.5 0zM1244.25 325.5 a5.25 5.25 0 1 0 10.5 0 a5.25 5.25 0 1 0 -10.5 0z" fill="rgba(79, 70, 229, 0.06)"></path>
            <path d="M1333.5 304.5L1333.5 199.5L1312.5 178.5" stroke-width="3.5" stroke="rgba(79, 70, 229, 0.06)"></path>
            <path d="M1328.25 304.5 a5.25 5.25 0 1 0 10.5 0 a5.25 5.25 0 1 0 -10.5 0zM1307.25 178.5 a5.25 5.25 0 1 0 10.5 0 a5.25 5.25 0 1 0 -10.5 0z" fill="rgba(79, 70, 229, 0.06)"></path>
            <path d="M913.5 136.5L871.5 136.5" stroke-width="3.5" stroke="rgba(79, 70, 229, 0.06)"></path>
            <path d="M908.25 136.5 a5.25 5.25 0 1 0 10.5 0 a5.25 5.25 0 1 0 -10.5 0zM866.25 136.5 a5.25 5.25 0 1 0 10.5 0 a5.25 5.25 0 1 0 -10.5 0z" fill="rgba(79, 70, 229, 0.06)"></path>
            <path d="M52.5 199.5L10.5 199.5" stroke-width="3.5" stroke="rgba(79, 70, 229, 0.06)"></path>
            <path d="M47.25 199.5 a5.25 5.25 0 1 0 10.5 0 a5.25 5.25 0 1 0 -10.5 0zM5.25 199.5 a5.25 5.25 0 1 0 10.5 0 a5.25 5.25 0 1 0 -10.5 0z" fill="rgba(79, 70, 229, 0.06)"></path>
            <path d="M1207.5 157.5L1228.5 136.5L1249.5 136.5L1270.5 157.5L1270.5 178.5" stroke-width="3.5" stroke="rgba(79, 70, 229, 0.06)"></path>
            <path d="M1202.25 157.5 a5.25 5.25 0 1 0 10.5 0 a5.25 5.25 0 1 0 -10.5 0zM1265.25 178.5 a5.25 5.25 0 1 0 10.5 0 a5.25 5.25 0 1 0 -10.5 0z" fill="rgba(79, 70, 229, 0.06)"></path>
            <path d="M1165.5 388.5L1186.5 388.5L1249.5 451.5L1249.5 472.5L1228.5 493.5L1081.5 493.5L1060.5 472.5L1039.5 472.5" stroke-width="3.5" stroke="rgba(79, 70, 229, 0.06)"></path>
            <path d="M1160.25 388.5 a5.25 5.25 0 1 0 10.5 0 a5.25 5.25 0 1 0 -10.5 0zM1034.25 472.5 a5.25 5.25 0 1 0 10.5 0 a5.25 5.25 0 1 0 -10.5 0z" fill="rgba(79, 70, 229, 0.06)"></path>
            <path d="M577.5 451.5L556.5 472.5L556.5 493.5" stroke-width="3.5" stroke="rgba(79, 70, 229, 0.06)"></path>
            <path d="M572.25 451.5 a5.25 5.25 0 1 0 10.5 0 a5.25 5.25 0 1 0 -10.5 0zM551.25 493.5 a5.25 5.25 0 1 0 10.5 0 a5.25 5.25 0 1 0 -10.5 0z" fill="rgba(79, 70, 229, 0.06)"></path>
            <path d="M241.5 472.5L136.5 472.5" stroke-width="3.5" stroke="rgba(79, 70, 229, 0.06)"></path>
            <path d="M236.25 472.5 a5.25 5.25 0 1 0 10.5 0 a5.25 5.25 0 1 0 -10.5 0zM131.25 472.5 a5.25 5.25 0 1 0 10.5 0 a5.25 5.25 0 1 0 -10.5 0z" fill="rgba(79, 70, 229, 0.06)"></path>
            <path d="M346.5 514.5L346.5 451.5" stroke-width="3.5" stroke="rgba(79, 70, 229, 0.06)"></path>
            <path d="M341.25 514.5 a5.25 5.25 0 1 0 10.5 0 a5.25 5.25 0 1 0 -10.5 0zM341.25 451.5 a5.25 5.25 0 1 0 10.5 0 a5.25 5.25 0 1 0 -10.5 0z" fill="rgba(79, 70, 229, 0.06)"></path>
            <path d="M472.5 115.5L577.5 220.5L640.5 220.5" stroke-width="3.5" stroke="rgba(79, 70, 229, 0.06)"></path>
            <path d="M467.25 115.5 a5.25 5.25 0 1 0 10.5 0 a5.25 5.25 0 1 0 -10.5 0zM635.25 220.5 a5.25 5.25 0 1 0 10.5 0 a5.25 5.25 0 1 0 -10.5 0z" fill="rgba(79, 70, 229, 0.06)"></path>
            <path d="M955.5 367.5L703.5 367.5L640.5 430.5" stroke-width="3.5" stroke="rgba(79, 70, 229, 0.06)"></path>
            <path d="M950.25 367.5 a5.25 5.25 0 1 0 10.5 0 a5.25 5.25 0 1 0 -10.5 0zM635.25 430.5 a5.25 5.25 0 1 0 10.5 0 a5.25 5.25 0 1 0 -10.5 0z" fill="rgba(79, 70, 229, 0.06)"></path>
            <path d="M1144.5 409.5L1165.5 430.5L1165.5 472.5" stroke-width="3.5" stroke="rgba(79, 70, 229, 0.06)"></path>
            <path d="M1139.25 409.5 a5.25 5.25 0 1 0 10.5 0 a5.25 5.25 0 1 0 -10.5 0zM1160.25 472.5 a5.25 5.25 0 1 0 10.5 0 a5.25 5.25 0 1 0 -10.5 0z" fill="rgba(79, 70, 229, 0.06)"></path>
            <path d="M199.5 346.5L220.5 325.5L241.5 325.5" stroke-width="3.5" stroke="rgba(79, 70, 229, 0.06)"></path>
            <path d="M194.25 346.5 a5.25 5.25 0 1 0 10.5 0 a5.25 5.25 0 1 0 -10.5 0zM236.25 325.5 a5.25 5.25 0 1 0 10.5 0 a5.25 5.25 0 1 0 -10.5 0z" fill="rgba(79, 70, 229, 0.06)"></path>
            <path d="M745.5 31.5L724.5 10.5L661.5 10.5L640.5 31.5L619.5 31.5" stroke-width="3.5" stroke="rgba(79, 70, 229, 0.06)"></path>
            <path d="M740.25 31.5 a5.25 5.25 0 1 0 10.5 0 a5.25 5.25 0 1 0 -10.5 0zM614.25 31.5 a5.25 5.25 0 1 0 10.5 0 a5.25 5.25 0 1 0 -10.5 0z" fill="rgba(79, 70, 229, 0.06)"></path>
            <path d="M850.5 199.5L850.5 220.5L955.5 325.5L955.5 346.5" stroke-width="3.5" stroke="rgba(79, 70, 229, 0.06)"></path>
            <path d="M845.25 199.5 a5.25 5.25 0 1 0 10.5 0 a5.25 5.25 0 1 0 -10.5 0zM950.25 346.5 a5.25 5.25 0 1 0 10.5 0 a5.25 5.25 0 1 0 -10.5 0z" fill="rgba(79, 70, 229, 0.06)"></path>
            <path d="M955.5 283.5L955.5 241.5L871.5 157.5" stroke-width="3.5" stroke="rgba(79, 70, 229, 0.06)"></path>
            <path d="M950.25 283.5 a5.25 5.25 0 1 0 10.5 0 a5.25 5.25 0 1 0 -10.5 0zM866.25 157.5 a5.25 5.25 0 1 0 10.5 0 a5.25 5.25 0 1 0 -10.5 0z" fill="rgba(79, 70, 229, 0.06)"></path>
            <path d="M73.5 514.5L31.5 556.5L10.5 556.5" stroke-width="3.5" stroke="rgba(79, 70, 229, 0.06)"></path>
            <path d="M68.25 514.5 a5.25 5.25 0 1 0 10.5 0 a5.25 5.25 0 1 0 -10.5 0zM5.25 556.5 a5.25 5.25 0 1 0 10.5 0 a5.25 5.25 0 1 0 -10.5 0z" fill="rgba(79, 70, 229, 0.06)"></path>
            <path d="M745.5 325.5L745.5 283.5" stroke-width="3.5" stroke="rgba(79, 70, 229, 0.06)"></path>
            <path d="M740.25 325.5 a5.25 5.25 0 1 0 10.5 0 a5.25 5.25 0 1 0 -10.5 0zM740.25 283.5 a5.25 5.25 0 1 0 10.5 0 a5.25 5.25 0 1 0 -10.5 0z" fill="rgba(79, 70, 229, 0.06)"></path>
            <path d="M451.5 388.5L514.5 388.5L535.5 409.5L535.5 451.5" stroke-width="3.5" stroke="rgba(79, 70, 229, 0.06)"></path>
            <path d="M446.25 388.5 a5.25 5.25 0 1 0 10.5 0 a5.25 5.25 0 1 0 -10.5 0zM530.25 451.5 a5.25 5.25 0 1 0 10.5 0 a5.25 5.25 0 1 0 -10.5 0z" fill="rgba(79, 70, 229, 0.06)"></path>
            <path d="M199.5 556.5L178.5 535.5L178.5 514.5L199.5 493.5L220.5 493.5L241.5 514.5L325.5 514.5" stroke-width="3.5" stroke="rgba(79, 70, 229, 0.06)"></path>
            <path d="M194.25 556.5 a5.25 5.25 0 1 0 10.5 0 a5.25 5.25 0 1 0 -10.5 0zM320.25 514.5 a5.25 5.25 0 1 0 10.5 0 a5.25 5.25 0 1 0 -10.5 0z" fill="rgba(79, 70, 229, 0.06)"></path>
            <path d="M199.5 367.5L178.5 346.5L73.5 346.5L52.5 325.5" stroke-width="3.5" stroke="rgba(79, 70, 229, 0.06)"></path>
            <path d="M194.25 367.5 a5.25 5.25 0 1 0 10.5 0 a5.25 5.25 0 1 0 -10.5 0zM47.25 325.5 a5.25 5.25 0 1 0 10.5 0 a5.25 5.25 0 1 0 -10.5 0z" fill="rgba(79, 70, 229, 0.06)"></path>
            <path d="M724.5 451.5L745.5 472.5L766.5 472.5L850.5 388.5L934.5 388.5" stroke-width="3.5" stroke="rgba(79, 70, 229, 0.06)"></path>
            <path d="M719.25 451.5 a5.25 5.25 0 1 0 10.5 0 a5.25 5.25 0 1 0 -10.5 0zM929.25 388.5 a5.25 5.25 0 1 0 10.5 0 a5.25 5.25 0 1 0 -10.5 0z" fill="rgba(79, 70, 229, 0.06)"></path>
            <path d="M1270.5 31.5L1249.5 10.5L1207.5 10.5" stroke-width="3.5" stroke="rgba(79, 70, 229, 0.06)"></path>
            <path d="M1265.25 31.5 a5.25 5.25 0 1 0 10.5 0 a5.25 5.25 0 1 0 -10.5 0zM1202.25 10.5 a5.25 5.25 0 1 0 10.5 0 a5.25 5.25 0 1 0 -10.5 0z" fill="rgba(79, 70, 229, 0.06)"></path>
            <path d="M556.5 31.5L577.5 31.5L598.5 52.5" stroke-width="3.5" stroke="rgba(79, 70, 229, 0.06)"></path>
            <path d="M551.25 31.5 a5.25 5.25 0 1 0 10.5 0 a5.25 5.25 0 1 0 -10.5 0zM593.25 52.5 a5.25 5.25 0 1 0 10.5 0 a5.25 5.25 0 1 0 -10.5 0z" fill="rgba(79, 70, 229, 0.06)"></path>
            <path d="M745.5 94.5L535.5 94.5" stroke-width="3.5" stroke="rgba(79, 70, 229, 0.06)"></path>
            <path d="M740.25 94.5 a5.25 5.25 0 1 0 10.5 0 a5.25 5.25 0 1 0 -10.5 0zM530.25 94.5 a5.25 5.25 0 1 0 10.5 0 a5.25 5.25 0 1 0 -10.5 0z" fill="rgba(79, 70, 229, 0.06)"></path>
            <path d="M451.5 535.5L493.5 535.5L514.5 514.5" stroke-width="3.5" stroke="rgba(79, 70, 229, 0.06)"></path>
            <path d="M446.25 535.5 a5.25 5.25 0 1 0 10.5 0 a5.25 5.25 0 1 0 -10.5 0zM509.25 514.5 a5.25 5.25 0 1 0 10.5 0 a5.25 5.25 0 1 0 -10.5 0z" fill="rgba(79, 70, 229, 0.06)"></path>
            <path d="M871.5 304.5L829.5 346.5L640.5 346.5" stroke-width="3.5" stroke="rgba(79, 70, 229, 0.06)"></path>
            <path d="M866.25 304.5 a5.25 5.25 0 1 0 10.5 0 a5.25 5.25 0 1 0 -10.5 0zM635.25 346.5 a5.25 5.25 0 1 0 10.5 0 a5.25 5.25 0 1 0 -10.5 0z" fill="rgba(79, 70, 229, 0.06)"></path>
            <path d="M10.5 115.5L52.5 115.5L73.5 136.5L73.5 178.5" stroke-width="3.5" stroke="rgba(79, 70, 229, 0.06)"></path>
            <path d="M5.25 115.5 a5.25 5.25 0 1 0 10.5 0 a5.25 5.25 0 1 0 -10.5 0zM68.25 178.5 a5.25 5.25 0 1 0 10.5 0 a5.25 5.25 0 1 0 -10.5 0z" fill="rgba(79, 70, 229, 0.06)"></path>
            <path d="M1438.5 115.5L1417.5 136.5L1417.5 157.5L1438.5 178.5L1438.5 241.5L1396.5 283.5L1396.5 325.5L1417.5 346.5L1417.5 388.5L1375.5 430.5" stroke-width="3.5" stroke="rgba(79, 70, 229, 0.06)"></path>
            <path d="M1433.25 115.5 a5.25 5.25 0 1 0 10.5 0 a5.25 5.25 0 1 0 -10.5 0zM1370.25 430.5 a5.25 5.25 0 1 0 10.5 0 a5.25 5.25 0 1 0 -10.5 0z" fill="rgba(79, 70, 229, 0.06)"></path>
            <path d="M346.5 52.5L388.5 52.5" stroke-width="3.5" stroke="rgba(79, 70, 229, 0.06)"></path>
            <path d="M341.25 52.5 a5.25 5.25 0 1 0 10.5 0 a5.25 5.25 0 1 0 -10.5 0zM383.25 52.5 a5.25 5.25 0 1 0 10.5 0 a5.25 5.25 0 1 0 -10.5 0z" fill="rgba(79, 70, 229, 0.06)"></path>
            <path d="M1102.5 409.5L1060.5 451.5" stroke-width="3.5" stroke="rgba(79, 70, 229, 0.06)"></path>
            <path d="M1097.25 409.5 a5.25 5.25 0 1 0 10.5 0 a5.25 5.25 0 1 0 -10.5 0zM1055.25 451.5 a5.25 5.25 0 1 0 10.5 0 a5.25 5.25 0 1 0 -10.5 0z" fill="rgba(79, 70, 229, 0.06)"></path>
            <path d="M1396.5 73.5L1438.5 31.5L1438.5 10.5" stroke-width="3.5" stroke="rgba(79, 70, 229, 0.06)"></path>
            <path d="M1391.25 73.5 a5.25 5.25 0 1 0 10.5 0 a5.25 5.25 0 1 0 -10.5 0zM1433.25 10.5 a5.25 5.25 0 1 0 10.5 0 a5.25 5.25 0 1 0 -10.5 0z" fill="rgba(79, 70, 229, 0.06)"></path>
            <path d="M73.5 367.5L10.5 367.5" stroke-width="3.5" stroke="rgba(79, 70, 229, 0.06)"></path>
            <path d="M68.25 367.5 a5.25 5.25 0 1 0 10.5 0 a5.25 5.25 0 1 0 -10.5 0zM5.25 367.5 a5.25 5.25 0 1 0 10.5 0 a5.25 5.25 0 1 0 -10.5 0z" fill="rgba(79, 70, 229, 0.06)"></path>
            <path d="M199.5 157.5L241.5 115.5" stroke-width="3.5" stroke="rgba(79, 70, 229, 0.06)"></path>
            <path d="M194.25 157.5 a5.25 5.25 0 1 0 10.5 0 a5.25 5.25 0 1 0 -10.5 0zM236.25 115.5 a5.25 5.25 0 1 0 10.5 0 a5.25 5.25 0 1 0 -10.5 0z" fill="rgba(79, 70, 229, 0.06)"></path>
            <path d="M703.5 283.5L724.5 304.5L724.5 325.5" stroke-width="3.5" stroke="rgba(79, 70, 229, 0.06)"></path>
            <path d="M698.25 283.5 a5.25 5.25 0 1 0 10.5 0 a5.25 5.25 0 1 0 -10.5 0zM719.25 325.5 a5.25 5.25 0 1 0 10.5 0 a5.25 5.25 0 1 0 -10.5 0z" fill="rgba(79, 70, 229, 0.06)"></path>
            <path d="M325.5 367.5L241.5 367.5L199.5 409.5" stroke-width="3.5" stroke="rgba(79, 70, 229, 0.06)"></path>
            <path d="M320.25 367.5 a5.25 5.25 0 1 0 10.5 0 a5.25 5.25 0 1 0 -10.5 0zM194.25 409.5 a5.25 5.25 0 1 0 10.5 0 a5.25 5.25 0 1 0 -10.5 0z" fill="rgba(79, 70, 229, 0.06)"></path>
            <path d="M1354.5 10.5L1375.5 31.5L1375.5 73.5L1333.5 115.5L1312.5 115.5L1228.5 31.5" stroke-width="3.5" stroke="rgba(79, 70, 229, 0.06)"></path>
            <path d="M1349.25 10.5 a5.25 5.25 0 1 0 10.5 0 a5.25 5.25 0 1 0 -10.5 0zM1223.25 31.5 a5.25 5.25 0 1 0 10.5 0 a5.25 5.25 0 1 0 -10.5 0z" fill="rgba(79, 70, 229, 0.06)"></path>
            <path d="M556.5 220.5L493.5 220.5L451.5 178.5L451.5 157.5L472.5 136.5" stroke-width="3.5" stroke="rgba(79, 70, 229, 0.06)"></path>
            <path d="M551.25 220.5 a5.25 5.25 0 1 0 10.5 0 a5.25 5.25 0 1 0 -10.5 0zM467.25 136.5 a5.25 5.25 0 1 0 10.5 0 a5.25 5.25 0 1 0 -10.5 0z" fill="rgba(79, 70, 229, 0.06)"></path>
            <path d="M1270.5 10.5L1333.5 10.5L1354.5 31.5L1354.5 73.5L1333.5 94.5L1312.5 94.5L1291.5 73.5L1291.5 52.5L1312.5 31.5L1333.5 31.5" stroke-width="3.5" stroke="rgba(79, 70, 229, 0.06)"></path>
            <path d="M1265.25 10.5 a5.25 5.25 0 1 0 10.5 0 a5.25 5.25 0 1 0 -10.5 0zM1328.25 31.5 a5.25 5.25 0 1 0 10.5 0 a5.25 5.25 0 1 0 -10.5 0z" fill="rgba(79, 70, 229, 0.06)"></path>
            <path d="M178.5 325.5L73.5 325.5" stroke-width="3.5" stroke="rgba(79, 70, 229, 0.06)"></path>
            <path d="M173.25 325.5 a5.25 5.25 0 1 0 10.5 0 a5.25 5.25 0 1 0 -10.5 0zM68.25 325.5 a5.25 5.25 0 1 0 10.5 0 a5.25 5.25 0 1 0 -10.5 0z" fill="rgba(79, 70, 229, 0.06)"></path>
            <path d="M283.5 199.5L262.5 220.5L262.5 283.5" stroke-width="3.5" stroke="rgba(79, 70, 229, 0.06)"></path>
            <path d="M278.25 199.5 a5.25 5.25 0 1 0 10.5 0 a5.25 5.25 0 1 0 -10.5 0zM257.25 283.5 a5.25 5.25 0 1 0 10.5 0 a5.25 5.25 0 1 0 -10.5 0z" fill="rgba(79, 70, 229, 0.06)"></path>
            <path d="M535.5 367.5L493.5 325.5L493.5 304.5L430.5 241.5" stroke-width="3.5" stroke="rgba(79, 70, 229, 0.06)"></path>
            <path d="M530.25 367.5 a5.25 5.25 0 1 0 10.5 0 a5.25 5.25 0 1 0 -10.5 0zM425.25 241.5 a5.25 5.25 0 1 0 10.5 0 a5.25 5.25 0 1 0 -10.5 0z" fill="rgba(79, 70, 229, 0.06)"></path>
            <path d="M976.5 52.5L955.5 73.5L955.5 94.5" stroke-width="3.5" stroke="rgba(79, 70, 229, 0.06)"></path>
            <path d="M971.25 52.5 a5.25 5.25 0 1 0 10.5 0 a5.25 5.25 0 1 0 -10.5 0zM950.25 94.5 a5.25 5.25 0 1 0 10.5 0 a5.25 5.25 0 1 0 -10.5 0z" fill="rgba(79, 70, 229, 0.06)"></path>
            <path d="M1081.5 535.5L1081.5 514.5L1060.5 493.5L1039.5 493.5" stroke-width="3.5" stroke="rgba(79, 70, 229, 0.06)"></path>
            <path d="M1076.25 535.5 a5.25 5.25 0 1 0 10.5 0 a5.25 5.25 0 1 0 -10.5 0zM1034.25 493.5 a5.25 5.25 0 1 0 10.5 0 a5.25 5.25 0 1 0 -10.5 0z" fill="rgba(79, 70, 229, 0.06)"></path>
            <path d="M1144.5 94.5L1165.5 73.5L1165.5 52.5" stroke-width="3.5" stroke="rgba(79, 70, 229, 0.06)"></path>
            <path d="M1139.25 94.5 a5.25 5.25 0 1 0 10.5 0 a5.25 5.25 0 1 0 -10.5 0zM1160.25 52.5 a5.25 5.25 0 1 0 10.5 0 a5.25 5.25 0 1 0 -10.5 0z" fill="rgba(79, 70, 229, 0.06)"></path>
            <path d="M514.5 52.5L577.5 52.5" stroke-width="3.5" stroke="rgba(79, 70, 229, 0.06)"></path>
            <path d="M509.25 52.5 a5.25 5.25 0 1 0 10.5 0 a5.25 5.25 0 1 0 -10.5 0zM572.25 52.5 a5.25 5.25 0 1 0 10.5 0 a5.25 5.25 0 1 0 -10.5 0z" fill="rgba(79, 70, 229, 0.06)"></path>
            <path d="M1018.5 430.5L997.5 430.5L955.5 472.5" stroke-width="3.5" stroke="rgba(79, 70, 229, 0.06)"></path>
            <path d="M1013.25 430.5 a5.25 5.25 0 1 0 10.5 0 a5.25 5.25 0 1 0 -10.5 0zM950.25 472.5 a5.25 5.25 0 1 0 10.5 0 a5.25 5.25 0 1 0 -10.5 0z" fill="rgba(79, 70, 229, 0.06)"></path>
            <path d="M1123.5 94.5L1102.5 94.5L976.5 220.5" stroke-width="3.5" stroke="rgba(79, 70, 229, 0.06)"></path>
            <path d="M1118.25 94.5 a5.25 5.25 0 1 0 10.5 0 a5.25 5.25 0 1 0 -10.5 0zM971.25 220.5 a5.25 5.25 0 1 0 10.5 0 a5.25 5.25 0 1 0 -10.5 0z" fill="rgba(79, 70, 229, 0.06)"></path>
            <path d="M997.5 388.5L976.5 388.5L913.5 451.5" stroke-width="3.5" stroke="rgba(79, 70, 229, 0.06)"></path>
            <path d="M992.25 388.5 a5.25 5.25 0 1 0 10.5 0 a5.25 5.25 0 1 0 -10.5 0zM908.25 451.5 a5.25 5.25 0 1 0 10.5 0 a5.25 5.25 0 1 0 -10.5 0z" fill="rgba(79, 70, 229, 0.06)"></path>
            <path d="M1165.5 199.5L1165.5 241.5L1144.5 262.5" stroke-width="3.5" stroke="rgba(79, 70, 229, 0.06)"></path>
            <path d="M1160.25 199.5 a5.25 5.25 0 1 0 10.5 0 a5.25 5.25 0 1 0 -10.5 0zM1139.25 262.5 a5.25 5.25 0 1 0 10.5 0 a5.25 5.25 0 1 0 -10.5 0z" fill="rgba(79, 70, 229, 0.06)"></path>
            <path d="M682.5 409.5L661.5 430.5L661.5 451.5" stroke-width="3.5" stroke="rgba(79, 70, 229, 0.06)"></path>
            <path d="M677.25 409.5 a5.25 5.25 0 1 0 10.5 0 a5.25 5.25 0 1 0 -10.5 0zM656.25 451.5 a5.25 5.25 0 1 0 10.5 0 a5.25 5.25 0 1 0 -10.5 0z" fill="rgba(79, 70, 229, 0.06)"></path>
            <path d="M1123.5 409.5L1123.5 388.5L1144.5 367.5" stroke-width="3.5" stroke="rgba(79, 70, 229, 0.06)"></path>
            <path d="M1118.25 409.5 a5.25 5.25 0 1 0 10.5 0 a5.25 5.25 0 1 0 -10.5 0zM1139.25 367.5 a5.25 5.25 0 1 0 10.5 0 a5.25 5.25 0 1 0 -10.5 0z" fill="rgba(79, 70, 229, 0.06)"></path>
            <path d="M346.5 115.5L409.5 178.5" stroke-width="3.5" stroke="rgba(79, 70, 229, 0.06)"></path>
            <path d="M341.25 115.5 a5.25 5.25 0 1 0 10.5 0 a5.25 5.25 0 1 0 -10.5 0zM404.25 178.5 a5.25 5.25 0 1 0 10.5 0 a5.25 5.25 0 1 0 -10.5 0z" fill="rgba(79, 70, 229, 0.06)"></path>
            <path d="M1396.5 346.5L1396.5 388.5L1375.5 409.5" stroke-width="3.5" stroke="rgba(79, 70, 229, 0.06)"></path>
            <path d="M1391.25 346.5 a5.25 5.25 0 1 0 10.5 0 a5.25 5.25 0 1 0 -10.5 0zM1370.25 409.5 a5.25 5.25 0 1 0 10.5 0 a5.25 5.25 0 1 0 -10.5 0z" fill="rgba(79, 70, 229, 0.06)"></path>
            <path d="M829.5 451.5L829.5 493.5L808.5 514.5L766.5 514.5" stroke-width="3.5" stroke="rgba(79, 70, 229, 0.06)"></path>
            <path d="M824.25 451.5 a5.25 5.25 0 1 0 10.5 0 a5.25 5.25 0 1 0 -10.5 0zM761.25 514.5 a5.25 5.25 0 1 0 10.5 0 a5.25 5.25 0 1 0 -10.5 0z" fill="rgba(79, 70, 229, 0.06)"></path>
            <path d="M430.5 115.5L430.5 136.5L409.5 157.5" stroke-width="3.5" stroke="rgba(79, 70, 229, 0.06)"></path>
            <path d="M425.25 115.5 a5.25 5.25 0 1 0 10.5 0 a5.25 5.25 0 1 0 -10.5 0zM404.25 157.5 a5.25 5.25 0 1 0 10.5 0 a5.25 5.25 0 1 0 -10.5 0z" fill="rgba(79, 70, 229, 0.06)"></path>
            <path d="M808.5 241.5L829.5 262.5L850.5 262.5L871.5 283.5" stroke-width="3.5" stroke="rgba(79, 70, 229, 0.06)"></path>
            <path d="M803.25 241.5 a5.25 5.25 0 1 0 10.5 0 a5.25 5.25 0 1 0 -10.5 0zM866.25 283.5 a5.25 5.25 0 1 0 10.5 0 a5.25 5.25 0 1 0 -10.5 0z" fill="rgba(79, 70, 229, 0.06)"></path>
            <path d="M157.5 73.5L178.5 94.5L199.5 94.5L241.5 52.5L241.5 10.5" stroke-width="3.5" stroke="rgba(79, 70, 229, 0.06)"></path>
            <path d="M152.25 73.5 a5.25 5.25 0 1 0 10.5 0 a5.25 5.25 0 1 0 -10.5 0zM236.25 10.5 a5.25 5.25 0 1 0 10.5 0 a5.25 5.25 0 1 0 -10.5 0z" fill="rgba(79, 70, 229, 0.06)"></path>
            <path d="M871.5 409.5L850.5 430.5L850.5 472.5" stroke-width="3.5" stroke="rgba(79, 70, 229, 0.06)"></path>
            <path d="M866.25 409.5 a5.25 5.25 0 1 0 10.5 0 a5.25 5.25 0 1 0 -10.5 0zM845.25 472.5 a5.25 5.25 0 1 0 10.5 0 a5.25 5.25 0 1 0 -10.5 0z" fill="rgba(79, 70, 229, 0.06)"></path>
            <path d="M787.5 325.5L766.5 304.5L766.5 283.5" stroke-width="3.5" stroke="rgba(79, 70, 229, 0.06)"></path>
            <path d="M782.25 325.5 a5.25 5.25 0 1 0 10.5 0 a5.25 5.25 0 1 0 -10.5 0zM761.25 283.5 a5.25 5.25 0 1 0 10.5 0 a5.25 5.25 0 1 0 -10.5 0z" fill="rgba(79, 70, 229, 0.06)"></path>
            <path d="M1081.5 157.5L1018.5 220.5L997.5 220.5" stroke-width="3.5" stroke="rgba(79, 70, 229, 0.06)"></path>
            <path d="M1076.25 157.5 a5.25 5.25 0 1 0 10.5 0 a5.25 5.25 0 1 0 -10.5 0zM992.25 220.5 a5.25 5.25 0 1 0 10.5 0 a5.25 5.25 0 1 0 -10.5 0z" fill="rgba(79, 70, 229, 0.06)"></path>
            <path d="M934.5 346.5L934.5 325.5L913.5 304.5L892.5 304.5L850.5 346.5" stroke-width="3.5" stroke="rgba(79, 70, 229, 0.06)"></path>
            <path d="M929.25 346.5 a5.25 5.25 0 1 0 10.5 0 a5.25 5.25 0 1 0 -10.5 0zM845.25 346.5 a5.25 5.25 0 1 0 10.5 0 a5.25 5.25 0 1 0 -10.5 0z" fill="rgba(79, 70, 229, 0.06)"></path>
            <path d="M115.5 94.5L31.5 10.5L10.5 10.5" stroke-width="3.5" stroke="rgba(79, 70, 229, 0.06)"></path>
            <path d="M110.25 94.5 a5.25 5.25 0 1 0 10.5 0 a5.25 5.25 0 1 0 -10.5 0zM5.25 10.5 a5.25 5.25 0 1 0 10.5 0 a5.25 5.25 0 1 0 -10.5 0z" fill="rgba(79, 70, 229, 0.06)"></path>
            <path d="M976.5 178.5L1018.5 136.5L1039.5 136.5" stroke-width="3.5" stroke="rgba(79, 70, 229, 0.06)"></path>
            <path d="M971.25 178.5 a5.25 5.25 0 1 0 10.5 0 a5.25 5.25 0 1 0 -10.5 0zM1034.25 136.5 a5.25 5.25 0 1 0 10.5 0 a5.25 5.25 0 1 0 -10.5 0z" fill="rgba(79, 70, 229, 0.06)"></path>
            <path d="M808.5 10.5L850.5 52.5" stroke-width="3.5" stroke="rgba(79, 70, 229, 0.06)"></path>
            <path d="M803.25 10.5 a5.25 5.25 0 1 0 10.5 0 a5.25 5.25 0 1 0 -10.5 0zM845.25 52.5 a5.25 5.25 0 1 0 10.5 0 a5.25 5.25 0 1 0 -10.5 0z" fill="rgba(79, 70, 229, 0.06)"></path>
            <path d="M1060.5 388.5L1018.5 388.5L997.5 367.5L997.5 283.5L1018.5 262.5" stroke-width="3.5" stroke="rgba(79, 70, 229, 0.06)"></path>
            <path d="M1055.25 388.5 a5.25 5.25 0 1 0 10.5 0 a5.25 5.25 0 1 0 -10.5 0zM1013.25 262.5 a5.25 5.25 0 1 0 10.5 0 a5.25 5.25 0 1 0 -10.5 0z" fill="rgba(79, 70, 229, 0.06)"></path>
            <path d="M1312.5 346.5L1312.5 430.5L1354.5 472.5L1375.5 472.5" stroke-width="3.5" stroke="rgba(79, 70, 229, 0.06)"></path>
            <path d="M1307.25 346.5 a5.25 5.25 0 1 0 10.5 0 a5.25 5.25 0 1 0 -10.5 0zM1370.25 472.5 a5.25 5.25 0 1 0 10.5 0 a5.25 5.25 0 1 0 -10.5 0z" fill="rgba(79, 70, 229, 0.06)"></path>
            <path d="M997.5 31.5L934.5 31.5L871.5 94.5" stroke-width="3.5" stroke="rgba(79, 70, 229, 0.06)"></path>
            <path d="M992.25 31.5 a5.25 5.25 0 1 0 10.5 0 a5.25 5.25 0 1 0 -10.5 0zM866.25 94.5 a5.25 5.25 0 1 0 10.5 0 a5.25 5.25 0 1 0 -10.5 0z" fill="rgba(79, 70, 229, 0.06)"></path>
            <path d="M157.5 556.5L136.5 535.5L136.5 514.5" stroke-width="3.5" stroke="rgba(79, 70, 229, 0.06)"></path>
            <path d="M152.25 556.5 a5.25 5.25 0 1 0 10.5 0 a5.25 5.25 0 1 0 -10.5 0zM131.25 514.5 a5.25 5.25 0 1 0 10.5 0 a5.25 5.25 0 1 0 -10.5 0z" fill="rgba(79, 70, 229, 0.06)"></path>
            <path d="M1438.5 514.5L1396.5 514.5" stroke-width="3.5" stroke="rgba(79, 70, 229, 0.06)"></path>
            <path d="M1433.25 514.5 a5.25 5.25 0 1 0 10.5 0 a5.25 5.25 0 1 0 -10.5 0zM1391.25 514.5 a5.25 5.25 0 1 0 10.5 0 a5.25 5.25 0 1 0 -10.5 0z" fill="rgba(79, 70, 229, 0.06)"></path>
            <path d="M10.5 157.5L31.5 178.5L52.5 178.5" stroke-width="3.5" stroke="rgba(79, 70, 229, 0.06)"></path>
            <path d="M5.25 157.5 a5.25 5.25 0 1 0 10.5 0 a5.25 5.25 0 1 0 -10.5 0zM47.25 178.5 a5.25 5.25 0 1 0 10.5 0 a5.25 5.25 0 1 0 -10.5 0z" fill="rgba(79, 70, 229, 0.06)"></path>
            <path d="M1018.5 283.5L1060.5 325.5L1060.5 367.5" stroke-width="3.5" stroke="rgba(79, 70, 229, 0.06)"></path>
            <path d="M1013.25 283.5 a5.25 5.25 0 1 0 10.5 0 a5.25 5.25 0 1 0 -10.5 0zM1055.25 367.5 a5.25 5.25 0 1 0 10.5 0 a5.25 5.25 0 1 0 -10.5 0z" fill="rgba(79, 70, 229, 0.06)"></path>
            <path d="M577.5 283.5L640.5 283.5" stroke-width="3.5" stroke="rgba(79, 70, 229, 0.06)"></path>
            <path d="M572.25 283.5 a5.25 5.25 0 1 0 10.5 0 a5.25 5.25 0 1 0 -10.5 0zM635.25 283.5 a5.25 5.25 0 1 0 10.5 0 a5.25 5.25 0 1 0 -10.5 0z" fill="rgba(79, 70, 229, 0.06)"></path>
            <path d="M283.5 241.5L367.5 241.5L409.5 283.5" stroke-width="3.5" stroke="rgba(79, 70, 229, 0.06)"></path>
            <path d="M278.25 241.5 a5.25 5.25 0 1 0 10.5 0 a5.25 5.25 0 1 0 -10.5 0zM404.25 283.5 a5.25 5.25 0 1 0 10.5 0 a5.25 5.25 0 1 0 -10.5 0z" fill="rgba(79, 70, 229, 0.06)"></path>
            <path d="M346.5 262.5L367.5 283.5L388.5 283.5" stroke-width="3.5" stroke="rgba(79, 70, 229, 0.06)"></path>
            <path d="M341.25 262.5 a5.25 5.25 0 1 0 10.5 0 a5.25 5.25 0 1 0 -10.5 0zM383.25 283.5 a5.25 5.25 0 1 0 10.5 0 a5.25 5.25 0 1 0 -10.5 0z" fill="rgba(79, 70, 229, 0.06)"></path>
            <path d="M1312.5 220.5L1312.5 325.5L1333.5 346.5L1333.5 367.5" stroke-width="3.5" stroke="rgba(79, 70, 229, 0.06)"></path>
            <path d="M1307.25 220.5 a5.25 5.25 0 1 0 10.5 0 a5.25 5.25 0 1 0 -10.5 0zM1328.25 367.5 a5.25 5.25 0 1 0 10.5 0 a5.25 5.25 0 1 0 -10.5 0z" fill="rgba(79, 70, 229, 0.06)"></path>
            <path d="M892.5 94.5L934.5 52.5L955.5 52.5" stroke-width="3.5" stroke="rgba(79, 70, 229, 0.06)"></path>
            <path d="M887.25 94.5 a5.25 5.25 0 1 0 10.5 0 a5.25 5.25 0 1 0 -10.5 0zM950.25 52.5 a5.25 5.25 0 1 0 10.5 0 a5.25 5.25 0 1 0 -10.5 0z" fill="rgba(79, 70, 229, 0.06)"></path>
            <path d="M199.5 73.5L199.5 31.5L220.5 10.5" stroke-width="3.5" stroke="rgba(79, 70, 229, 0.06)"></path>
            <path d="M194.25 73.5 a5.25 5.25 0 1 0 10.5 0 a5.25 5.25 0 1 0 -10.5 0zM215.25 10.5 a5.25 5.25 0 1 0 10.5 0 a5.25 5.25 0 1 0 -10.5 0z" fill="rgba(79, 70, 229, 0.06)"></path>
            <path d="M157.5 31.5L157.5 52.5L178.5 73.5" stroke-width="3.5" stroke="rgba(79, 70, 229, 0.06)"></path>
            <path d="M152.25 31.5 a5.25 5.25 0 1 0 10.5 0 a5.25 5.25 0 1 0 -10.5 0zM173.25 73.5 a5.25 5.25 0 1 0 10.5 0 a5.25 5.25 0 1 0 -10.5 0z" fill="rgba(79, 70, 229, 0.06)"></path>
            <path d="M31.5 430.5L52.5 451.5L52.5 472.5L10.5 514.5L10.5 535.5" stroke-width="3.5" stroke="rgba(79, 70, 229, 0.06)"></path>
            <path d="M26.25 430.5 a5.25 5.25 0 1 0 10.5 0 a5.25 5.25 0 1 0 -10.5 0zM5.25 535.5 a5.25 5.25 0 1 0 10.5 0 a5.25 5.25 0 1 0 -10.5 0z" fill="rgba(79, 70, 229, 0.06)"></path>
            <path d="M703.5 157.5L619.5 157.5" stroke-width="3.5" stroke="rgba(79, 70, 229, 0.06)"></path>
            <path d="M698.25 157.5 a5.25 5.25 0 1 0 10.5 0 a5.25 5.25 0 1 0 -10.5 0zM614.25 157.5 a5.25 5.25 0 1 0 10.5 0 a5.25 5.25 0 1 0 -10.5 0z" fill="rgba(79, 70, 229, 0.06)"></path>
            <path d="M682.5 451.5L703.5 430.5L787.5 430.5L829.5 388.5" stroke-width="3.5" stroke="rgba(79, 70, 229, 0.06)"></path>
            <path d="M677.25 451.5 a5.25 5.25 0 1 0 10.5 0 a5.25 5.25 0 1 0 -10.5 0zM824.25 388.5 a5.25 5.25 0 1 0 10.5 0 a5.25 5.25 0 1 0 -10.5 0z" fill="rgba(79, 70, 229, 0.06)"></path>
            <path d="M514.5 325.5L556.5 367.5L556.5 388.5" stroke-width="3.5" stroke="rgba(79, 70, 229, 0.06)"></path>
            <path d="M509.25 325.5 a5.25 5.25 0 1 0 10.5 0 a5.25 5.25 0 1 0 -10.5 0zM551.25 388.5 a5.25 5.25 0 1 0 10.5 0 a5.25 5.25 0 1 0 -10.5 0z" fill="rgba(79, 70, 229, 0.06)"></path>
            <path d="M1375.5 325.5L1375.5 388.5" stroke-width="3.5" stroke="rgba(79, 70, 229, 0.06)"></path>
            <path d="M1370.25 325.5 a5.25 5.25 0 1 0 10.5 0 a5.25 5.25 0 1 0 -10.5 0zM1370.25 388.5 a5.25 5.25 0 1 0 10.5 0 a5.25 5.25 0 1 0 -10.5 0z" fill="rgba(79, 70, 229, 0.06)"></path>
            <path d="M1144.5 472.5L1081.5 472.5" stroke-width="3.5" stroke="rgba(79, 70, 229, 0.06)"></path>
            <path d="M1139.25 472.5 a5.25 5.25 0 1 0 10.5 0 a5.25 5.25 0 1 0 -10.5 0zM1076.25 472.5 a5.25 5.25 0 1 0 10.5 0 a5.25 5.25 0 1 0 -10.5 0z" fill="rgba(79, 70, 229, 0.06)"></path>
            <path d="M1396.5 220.5L1396.5 262.5" stroke-width="3.5" stroke="rgba(79, 70, 229, 0.06)"></path>
            <path d="M1391.25 220.5 a5.25 5.25 0 1 0 10.5 0 a5.25 5.25 0 1 0 -10.5 0zM1391.25 262.5 a5.25 5.25 0 1 0 10.5 0 a5.25 5.25 0 1 0 -10.5 0z" fill="rgba(79, 70, 229, 0.06)"></path>
            <path d="M367.5 388.5L367.5 346.5" stroke-width="3.5" stroke="rgba(79, 70, 229, 0.06)"></path>
            <path d="M362.25 388.5 a5.25 5.25 0 1 0 10.5 0 a5.25 5.25 0 1 0 -10.5 0zM362.25 346.5 a5.25 5.25 0 1 0 10.5 0 a5.25 5.25 0 1 0 -10.5 0z" fill="rgba(79, 70, 229, 0.06)"></path>
            <path d="M325.5 199.5L304.5 220.5L283.5 220.5" stroke-width="3.5" stroke="rgba(79, 70, 229, 0.06)"></path>
            <path d="M320.25 199.5 a5.25 5.25 0 1 0 10.5 0 a5.25 5.25 0 1 0 -10.5 0zM278.25 220.5 a5.25 5.25 0 1 0 10.5 0 a5.25 5.25 0 1 0 -10.5 0z" fill="rgba(79, 70, 229, 0.06)"></path>
            <path d="M682.5 115.5L619.5 115.5" stroke-width="3.5" stroke="rgba(79, 70, 229, 0.06)"></path>
            <path d="M677.25 115.5 a5.25 5.25 0 1 0 10.5 0 a5.25 5.25 0 1 0 -10.5 0zM614.25 115.5 a5.25 5.25 0 1 0 10.5 0 a5.25 5.25 0 1 0 -10.5 0z" fill="rgba(79, 70, 229, 0.06)"></path>
            <path d="M703.5 388.5L724.5 409.5L787.5 409.5L808.5 388.5" stroke-width="3.5" stroke="rgba(79, 70, 229, 0.06)"></path>
            <path d="M698.25 388.5 a5.25 5.25 0 1 0 10.5 0 a5.25 5.25 0 1 0 -10.5 0zM803.25 388.5 a5.25 5.25 0 1 0 10.5 0 a5.25 5.25 0 1 0 -10.5 0z" fill="rgba(79, 70, 229, 0.06)"></path>
            <path d="M10.5 493.5L31.5 472.5L31.5 451.5L10.5 430.5" stroke-width="3.5" stroke="rgba(79, 70, 229, 0.06)"></path>
            <path d="M5.25 493.5 a5.25 5.25 0 1 0 10.5 0 a5.25 5.25 0 1 0 -10.5 0zM5.25 430.5 a5.25 5.25 0 1 0 10.5 0 a5.25 5.25 0 1 0 -10.5 0z" fill="rgba(79, 70, 229, 0.06)"></path>
            <path d="M829.5 325.5L808.5 325.5L787.5 304.5L787.5 283.5" stroke-width="3.5" stroke="rgba(79, 70, 229, 0.06)"></path>
            <path d="M824.25 325.5 a5.25 5.25 0 1 0 10.5 0 a5.25 5.25 0 1 0 -10.5 0zM782.25 283.5 a5.25 5.25 0 1 0 10.5 0 a5.25 5.25 0 1 0 -10.5 0z" fill="rgba(79, 70, 229, 0.06)"></path>
            <path d="M1207.5 199.5L1207.5 178.5L1186.5 157.5L1165.5 157.5" stroke-width="3.5" stroke="rgba(79, 70, 229, 0.06)"></path>
            <path d="M1202.25 199.5 a5.25 5.25 0 1 0 10.5 0 a5.25 5.25 0 1 0 -10.5 0zM1160.25 157.5 a5.25 5.25 0 1 0 10.5 0 a5.25 5.25 0 1 0 -10.5 0z" fill="rgba(79, 70, 229, 0.06)"></path>
            <path d="M556.5 304.5L556.5 346.5" stroke-width="3.5" stroke="rgba(79, 70, 229, 0.06)"></path>
            <path d="M551.25 304.5 a5.25 5.25 0 1 0 10.5 0 a5.25 5.25 0 1 0 -10.5 0zM551.25 346.5 a5.25 5.25 0 1 0 10.5 0 a5.25 5.25 0 1 0 -10.5 0z" fill="rgba(79, 70, 229, 0.06)"></path>
            <path d="M913.5 535.5L892.5 556.5L829.5 556.5" stroke-width="3.5" stroke="rgba(79, 70, 229, 0.06)"></path>
            <path d="M908.25 535.5 a5.25 5.25 0 1 0 10.5 0 a5.25 5.25 0 1 0 -10.5 0zM824.25 556.5 a5.25 5.25 0 1 0 10.5 0 a5.25 5.25 0 1 0 -10.5 0z" fill="rgba(79, 70, 229, 0.06)"></path>
            <path d="M325.5 556.5L220.5 556.5" stroke-width="3.5" stroke="rgba(79, 70, 229, 0.06)"></path>
            <path d="M320.25 556.5 a5.25 5.25 0 1 0 10.5 0 a5.25 5.25 0 1 0 -10.5 0zM215.25 556.5 a5.25 5.25 0 1 0 10.5 0 a5.25 5.25 0 1 0 -10.5 0z" fill="rgba(79, 70, 229, 0.06)"></path>
            <path d="M409.5 472.5L472.5 472.5" stroke-width="3.5" stroke="rgba(79, 70, 229, 0.06)"></path>
            <path d="M404.25 472.5 a5.25 5.25 0 1 0 10.5 0 a5.25 5.25 0 1 0 -10.5 0zM467.25 472.5 a5.25 5.25 0 1 0 10.5 0 a5.25 5.25 0 1 0 -10.5 0z" fill="rgba(79, 70, 229, 0.06)"></path>
            <path d="M283.5 388.5L241.5 388.5L220.5 409.5" stroke-width="3.5" stroke="rgba(79, 70, 229, 0.06)"></path>
            <path d="M278.25 388.5 a5.25 5.25 0 1 0 10.5 0 a5.25 5.25 0 1 0 -10.5 0zM215.25 409.5 a5.25 5.25 0 1 0 10.5 0 a5.25 5.25 0 1 0 -10.5 0z" fill="rgba(79, 70, 229, 0.06)"></path>
            <path d="M598.5 262.5L556.5 262.5L514.5 304.5" stroke-width="3.5" stroke="rgba(79, 70, 229, 0.06)"></path>
            <path d="M593.25 262.5 a5.25 5.25 0 1 0 10.5 0 a5.25 5.25 0 1 0 -10.5 0zM509.25 304.5 a5.25 5.25 0 1 0 10.5 0 a5.25 5.25 0 1 0 -10.5 0z" fill="rgba(79, 70, 229, 0.06)"></path>
            <path d="M1081.5 136.5L1102.5 136.5L1123.5 115.5" stroke-width="3.5" stroke="rgba(79, 70, 229, 0.06)"></path>
            <path d="M1076.25 136.5 a5.25 5.25 0 1 0 10.5 0 a5.25 5.25 0 1 0 -10.5 0zM1118.25 115.5 a5.25 5.25 0 1 0 10.5 0 a5.25 5.25 0 1 0 -10.5 0z" fill="rgba(79, 70, 229, 0.06)"></path>
            <path d="M283.5 409.5L241.5 409.5" stroke-width="3.5" stroke="rgba(79, 70, 229, 0.06)"></path>
            <path d="M278.25 409.5 a5.25 5.25 0 1 0 10.5 0 a5.25 5.25 0 1 0 -10.5 0zM236.25 409.5 a5.25 5.25 0 1 0 10.5 0 a5.25 5.25 0 1 0 -10.5 0z" fill="rgba(79, 70, 229, 0.06)"></path>
            <path d="M241.5 136.5L220.5 157.5L220.5 178.5" stroke-width="3.5" stroke="rgba(79, 70, 229, 0.06)"></path>
            <path d="M236.25 136.5 a5.25 5.25 0 1 0 10.5 0 a5.25 5.25 0 1 0 -10.5 0zM215.25 178.5 a5.25 5.25 0 1 0 10.5 0 a5.25 5.25 0 1 0 -10.5 0z" fill="rgba(79, 70, 229, 0.06)"></path>
            <path d="M115.5 73.5L94.5 52.5L94.5 10.5" stroke-width="3.5" stroke="rgba(79, 70, 229, 0.06)"></path>
            <path d="M110.25 73.5 a5.25 5.25 0 1 0 10.5 0 a5.25 5.25 0 1 0 -10.5 0zM89.25 10.5 a5.25 5.25 0 1 0 10.5 0 a5.25 5.25 0 1 0 -10.5 0z" fill="rgba(79, 70, 229, 0.06)"></path>
            <path d="M661.5 556.5L745.5 556.5" stroke-width="3.5" stroke="rgba(79, 70, 229, 0.06)"></path>
            <path d="M656.25 556.5 a5.25 5.25 0 1 0 10.5 0 a5.25 5.25 0 1 0 -10.5 0zM740.25 556.5 a5.25 5.25 0 1 0 10.5 0 a5.25 5.25 0 1 0 -10.5 0z" fill="rgba(79, 70, 229, 0.06)"></path>
            <path d="M976.5 409.5L1039.5 409.5" stroke-width="3.5" stroke="rgba(79, 70, 229, 0.06)"></path>
            <path d="M971.25 409.5 a5.25 5.25 0 1 0 10.5 0 a5.25 5.25 0 1 0 -10.5 0zM1034.25 409.5 a5.25 5.25 0 1 0 10.5 0 a5.25 5.25 0 1 0 -10.5 0z" fill="rgba(79, 70, 229, 0.06)"></path>
            <path d="M892.5 514.5L871.5 535.5L850.5 535.5" stroke-width="3.5" stroke="rgba(79, 70, 229, 0.06)"></path>
            <path d="M887.25 514.5 a5.25 5.25 0 1 0 10.5 0 a5.25 5.25 0 1 0 -10.5 0zM845.25 535.5 a5.25 5.25 0 1 0 10.5 0 a5.25 5.25 0 1 0 -10.5 0z" fill="rgba(79, 70, 229, 0.06)"></path>
            <path d="M787.5 94.5L766.5 94.5L745.5 73.5L724.5 73.5" stroke-width="3.5" stroke="rgba(79, 70, 229, 0.06)"></path>
            <path d="M782.25 94.5 a5.25 5.25 0 1 0 10.5 0 a5.25 5.25 0 1 0 -10.5 0zM719.25 73.5 a5.25 5.25 0 1 0 10.5 0 a5.25 5.25 0 1 0 -10.5 0z" fill="rgba(79, 70, 229, 0.06)"></path>
            <path d="M1144.5 430.5L1102.5 430.5L1081.5 451.5" stroke-width="3.5" stroke="rgba(79, 70, 229, 0.06)"></path>
            <path d="M1139.25 430.5 a5.25 5.25 0 1 0 10.5 0 a5.25 5.25 0 1 0 -10.5 0zM1076.25 451.5 a5.25 5.25 0 1 0 10.5 0 a5.25 5.25 0 1 0 -10.5 0z" fill="rgba(79, 70, 229, 0.06)"></path>
            <path d="M1228.5 115.5L1207.5 136.5L1186.5 136.5" stroke-width="3.5" stroke="rgba(79, 70, 229, 0.06)"></path>
            <path d="M1223.25 115.5 a5.25 5.25 0 1 0 10.5 0 a5.25 5.25 0 1 0 -10.5 0zM1181.25 136.5 a5.25 5.25 0 1 0 10.5 0 a5.25 5.25 0 1 0 -10.5 0z" fill="rgba(79, 70, 229, 0.06)"></path>
            <path d="M745.5 241.5L787.5 199.5" stroke-width="3.5" stroke="rgba(79, 70, 229, 0.06)"></path>
            <path d="M740.25 241.5 a5.25 5.25 0 1 0 10.5 0 a5.25 5.25 0 1 0 -10.5 0zM782.25 199.5 a5.25 5.25 0 1 0 10.5 0 a5.25 5.25 0 1 0 -10.5 0z" fill="rgba(79, 70, 229, 0.06)"></path>
            <path d="M115.5 10.5L115.5 52.5" stroke-width="3.5" stroke="rgba(79, 70, 229, 0.06)"></path>
            <path d="M110.25 10.5 a5.25 5.25 0 1 0 10.5 0 a5.25 5.25 0 1 0 -10.5 0zM110.25 52.5 a5.25 5.25 0 1 0 10.5 0 a5.25 5.25 0 1 0 -10.5 0z" fill="rgba(79, 70, 229, 0.06)"></path>
            <path d="M787.5 388.5L724.5 388.5" stroke-width="3.5" stroke="rgba(79, 70, 229, 0.06)"></path>
            <path d="M782.25 388.5 a5.25 5.25 0 1 0 10.5 0 a5.25 5.25 0 1 0 -10.5 0zM719.25 388.5 a5.25 5.25 0 1 0 10.5 0 a5.25 5.25 0 1 0 -10.5 0z" fill="rgba(79, 70, 229, 0.06)"></path>
            <path d="M451.5 493.5L472.5 514.5L493.5 514.5" stroke-width="3.5" stroke="rgba(79, 70, 229, 0.06)"></path>
            <path d="M446.25 493.5 a5.25 5.25 0 1 0 10.5 0 a5.25 5.25 0 1 0 -10.5 0zM488.25 514.5 a5.25 5.25 0 1 0 10.5 0 a5.25 5.25 0 1 0 -10.5 0z" fill="rgba(79, 70, 229, 0.06)"></path>
            <path d="M52.5 73.5L52.5 52.5L31.5 31.5L10.5 31.5" stroke-width="3.5" stroke="rgba(79, 70, 229, 0.06)"></path>
            <path d="M47.25 73.5 a5.25 5.25 0 1 0 10.5 0 a5.25 5.25 0 1 0 -10.5 0zM5.25 31.5 a5.25 5.25 0 1 0 10.5 0 a5.25 5.25 0 1 0 -10.5 0z" fill="rgba(79, 70, 229, 0.06)"></path>
            <path d="M871.5 346.5L892.5 346.5L913.5 325.5" stroke-width="3.5" stroke="rgba(79, 70, 229, 0.06)"></path>
            <path d="M866.25 346.5 a5.25 5.25 0 1 0 10.5 0 a5.25 5.25 0 1 0 -10.5 0zM908.25 325.5 a5.25 5.25 0 1 0 10.5 0 a5.25 5.25 0 1 0 -10.5 0z" fill="rgba(79, 70, 229, 0.06)"></path>
            <path d="M178.5 52.5L178.5 10.5" stroke-width="3.5" stroke="rgba(79, 70, 229, 0.06)"></path>
            <path d="M173.25 52.5 a5.25 5.25 0 1 0 10.5 0 a5.25 5.25 0 1 0 -10.5 0zM173.25 10.5 a5.25 5.25 0 1 0 10.5 0 a5.25 5.25 0 1 0 -10.5 0z" fill="rgba(79, 70, 229, 0.06)"></path>
            <path d="M1060.5 10.5L1102.5 10.5" stroke-width="3.5" stroke="rgba(79, 70, 229, 0.06)"></path>
            <path d="M1055.25 10.5 a5.25 5.25 0 1 0 10.5 0 a5.25 5.25 0 1 0 -10.5 0zM1097.25 10.5 a5.25 5.25 0 1 0 10.5 0 a5.25 5.25 0 1 0 -10.5 0z" fill="rgba(79, 70, 229, 0.06)"></path>
            <path d="M409.5 73.5L409.5 94.5L388.5 115.5L388.5 136.5" stroke-width="3.5" stroke="rgba(79, 70, 229, 0.06)"></path>
            <path d="M404.25 73.5 a5.25 5.25 0 1 0 10.5 0 a5.25 5.25 0 1 0 -10.5 0zM383.25 136.5 a5.25 5.25 0 1 0 10.5 0 a5.25 5.25 0 1 0 -10.5 0z" fill="rgba(79, 70, 229, 0.06)"></path>
            <path d="M1039.5 10.5L997.5 52.5" stroke-width="3.5" stroke="rgba(79, 70, 229, 0.06)"></path>
            <path d="M1034.25 10.5 a5.25 5.25 0 1 0 10.5 0 a5.25 5.25 0 1 0 -10.5 0zM992.25 52.5 a5.25 5.25 0 1 0 10.5 0 a5.25 5.25 0 1 0 -10.5 0z" fill="rgba(79, 70, 229, 0.06)"></path>
            <path d="M1270.5 556.5L1312.5 556.5" stroke-width="3.5" stroke="rgba(79, 70, 229, 0.06)"></path>
            <path d="M1265.25 556.5 a5.25 5.25 0 1 0 10.5 0 a5.25 5.25 0 1 0 -10.5 0zM1307.25 556.5 a5.25 5.25 0 1 0 10.5 0 a5.25 5.25 0 1 0 -10.5 0z" fill="rgba(79, 70, 229, 0.06)"></path>
            <path d="M1060.5 304.5L1060.5 262.5" stroke-width="3.5" stroke="rgba(79, 70, 229, 0.06)"></path>
            <path d="M1055.25 304.5 a5.25 5.25 0 1 0 10.5 0 a5.25 5.25 0 1 0 -10.5 0zM1055.25 262.5 a5.25 5.25 0 1 0 10.5 0 a5.25 5.25 0 1 0 -10.5 0z" fill="rgba(79, 70, 229, 0.06)"></path>
            <path d="M1417.5 325.5L1417.5 283.5" stroke-width="3.5" stroke="rgba(79, 70, 229, 0.06)"></path>
            <path d="M1412.25 325.5 a5.25 5.25 0 1 0 10.5 0 a5.25 5.25 0 1 0 -10.5 0zM1412.25 283.5 a5.25 5.25 0 1 0 10.5 0 a5.25 5.25 0 1 0 -10.5 0z" fill="rgba(79, 70, 229, 0.06)"></path>
            <path d="M1186.5 409.5L1186.5 472.5" stroke-width="3.5" stroke="rgba(79, 70, 229, 0.06)"></path>
            <path d="M1181.25 409.5 a5.25 5.25 0 1 0 10.5 0 a5.25 5.25 0 1 0 -10.5 0zM1181.25 472.5 a5.25 5.25 0 1 0 10.5 0 a5.25 5.25 0 1 0 -10.5 0z" fill="rgba(79, 70, 229, 0.06)"></path>
            <path d="M157.5 367.5L115.5 367.5" stroke-width="3.5" stroke="rgba(79, 70, 229, 0.06)"></path>
            <path d="M152.25 367.5 a5.25 5.25 0 1 0 10.5 0 a5.25 5.25 0 1 0 -10.5 0zM110.25 367.5 a5.25 5.25 0 1 0 10.5 0 a5.25 5.25 0 1 0 -10.5 0z" fill="rgba(79, 70, 229, 0.06)"></path>
        </g>
    </g>
    <defs>
        <mask id="SvgjsMask1018">
            <rect width="1440" height="560" fill="#ffffff"></rect>
        </mask>
        <mask id="SvgjsMask1019">
            <rect width="1440" height="560" fill="white"></rect>
            <path d="M952.87 514.5 a2.63 2.63 0 1 0 5.26 0 a2.63 2.63 0 1 0 -5.26 0zM952.87 556.5 a2.63 2.63 0 1 0 5.26 0 a2.63 2.63 0 1 0 -5.26 0z" fill="black"></path>
            <path d="M574.87 430.5 a2.63 2.63 0 1 0 5.26 0 a2.63 2.63 0 1 0 -5.26 0zM910.87 31.5 a2.63 2.63 0 1 0 5.26 0 a2.63 2.63 0 1 0 -5.26 0z" fill="black"></path>
            <path d="M994.87 262.5 a2.63 2.63 0 1 0 5.26 0 a2.63 2.63 0 1 0 -5.26 0zM679.87 472.5 a2.63 2.63 0 1 0 5.26 0 a2.63 2.63 0 1 0 -5.26 0z" fill="black"></path>
            <path d="M679.87 367.5 a2.63 2.63 0 1 0 5.26 0 a2.63 2.63 0 1 0 -5.26 0zM595.87 367.5 a2.63 2.63 0 1 0 5.26 0 a2.63 2.63 0 1 0 -5.26 0z" fill="black"></path>
            <path d="M721.87 241.5 a2.63 2.63 0 1 0 5.26 0 a2.63 2.63 0 1 0 -5.26 0zM1120.87 52.5 a2.63 2.63 0 1 0 5.26 0 a2.63 2.63 0 1 0 -5.26 0z" fill="black"></path>
            <path d="M7.87 304.5 a2.63 2.63 0 1 0 5.26 0 a2.63 2.63 0 1 0 -5.26 0zM406.87 304.5 a2.63 2.63 0 1 0 5.26 0 a2.63 2.63 0 1 0 -5.26 0z" fill="black"></path>
            <path d="M1183.87 73.5 a2.63 2.63 0 1 0 5.26 0 a2.63 2.63 0 1 0 -5.26 0zM952.87 136.5 a2.63 2.63 0 1 0 5.26 0 a2.63 2.63 0 1 0 -5.26 0z" fill="black"></path>
            <path d="M952.87 493.5 a2.63 2.63 0 1 0 5.26 0 a2.63 2.63 0 1 0 -5.26 0zM1162.87 115.5 a2.63 2.63 0 1 0 5.26 0 a2.63 2.63 0 1 0 -5.26 0z" fill="black"></path>
            <path d="M91.87 241.5 a2.63 2.63 0 1 0 5.26 0 a2.63 2.63 0 1 0 -5.26 0zM469.87 10.5 a2.63 2.63 0 1 0 5.26 0 a2.63 2.63 0 1 0 -5.26 0z" fill="black"></path>
            <path d="M532.87 115.5 a2.63 2.63 0 1 0 5.26 0 a2.63 2.63 0 1 0 -5.26 0zM133.87 199.5 a2.63 2.63 0 1 0 5.26 0 a2.63 2.63 0 1 0 -5.26 0z" fill="black"></path>
            <path d="M343.87 409.5 a2.63 2.63 0 1 0 5.26 0 a2.63 2.63 0 1 0 -5.26 0zM343.87 325.5 a2.63 2.63 0 1 0 5.26 0 a2.63 2.63 0 1 0 -5.26 0z" fill="black"></path>
            <path d="M910.87 241.5 a2.63 2.63 0 1 0 5.26 0 a2.63 2.63 0 1 0 -5.26 0zM847.87 136.5 a2.63 2.63 0 1 0 5.26 0 a2.63 2.63 0 1 0 -5.26 0z" fill="black"></path>
            <path d="M196.87 241.5 a2.63 2.63 0 1 0 5.26 0 a2.63 2.63 0 1 0 -5.26 0zM595.87 241.5 a2.63 2.63 0 1 0 5.26 0 a2.63 2.63 0 1 0 -5.26 0z" fill="black"></path>
            <path d="M259.87 115.5 a2.63 2.63 0 1 0 5.26 0 a2.63 2.63 0 1 0 -5.26 0zM658.87 199.5 a2.63 2.63 0 1 0 5.26 0 a2.63 2.63 0 1 0 -5.26 0z" fill="black"></path>
            <path d="M448.87 136.5 a2.63 2.63 0 1 0 5.26 0 a2.63 2.63 0 1 0 -5.26 0zM448.87 73.5 a2.63 2.63 0 1 0 5.26 0 a2.63 2.63 0 1 0 -5.26 0z" fill="black"></path>
            <path d="M1078.87 73.5 a2.63 2.63 0 1 0 5.26 0 a2.63 2.63 0 1 0 -5.26 0zM1372.87 304.5 a2.63 2.63 0 1 0 5.26 0 a2.63 2.63 0 1 0 -5.26 0z" fill="black"></path>
            <path d="M196.87 178.5 a2.63 2.63 0 1 0 5.26 0 a2.63 2.63 0 1 0 -5.26 0zM7.87 283.5 a2.63 2.63 0 1 0 5.26 0 a2.63 2.63 0 1 0 -5.26 0z" fill="black"></path>
            <path d="M658.87 325.5 a2.63 2.63 0 1 0 5.26 0 a2.63 2.63 0 1 0 -5.26 0zM616.87 346.5 a2.63 2.63 0 1 0 5.26 0 a2.63 2.63 0 1 0 -5.26 0z" fill="black"></path>
            <path d="M133.87 10.5 a2.63 2.63 0 1 0 5.26 0 a2.63 2.63 0 1 0 -5.26 0zM175.87 115.5 a2.63 2.63 0 1 0 5.26 0 a2.63 2.63 0 1 0 -5.26 0z" fill="black"></path>
            <path d="M637.87 10.5 a2.63 2.63 0 1 0 5.26 0 a2.63 2.63 0 1 0 -5.26 0zM469.87 31.5 a2.63 2.63 0 1 0 5.26 0 a2.63 2.63 0 1 0 -5.26 0z" fill="black"></path>
            <path d="M28.87 73.5 a2.63 2.63 0 1 0 5.26 0 a2.63 2.63 0 1 0 -5.26 0zM7.87 262.5 a2.63 2.63 0 1 0 5.26 0 a2.63 2.63 0 1 0 -5.26 0z" fill="black"></path>
            <path d="M1372.87 535.5 a2.63 2.63 0 1 0 5.26 0 a2.63 2.63 0 1 0 -5.26 0zM1162.87 136.5 a2.63 2.63 0 1 0 5.26 0 a2.63 2.63 0 1 0 -5.26 0z" fill="black"></path>
            <path d="M553.87 136.5 a2.63 2.63 0 1 0 5.26 0 a2.63 2.63 0 1 0 -5.26 0zM952.87 10.5 a2.63 2.63 0 1 0 5.26 0 a2.63 2.63 0 1 0 -5.26 0z" fill="black"></path>
            <path d="M1372.87 94.5 a2.63 2.63 0 1 0 5.26 0 a2.63 2.63 0 1 0 -5.26 0zM1330.87 136.5 a2.63 2.63 0 1 0 5.26 0 a2.63 2.63 0 1 0 -5.26 0z" fill="black"></path>
            <path d="M1246.87 556.5 a2.63 2.63 0 1 0 5.26 0 a2.63 2.63 0 1 0 -5.26 0zM973.87 556.5 a2.63 2.63 0 1 0 5.26 0 a2.63 2.63 0 1 0 -5.26 0z" fill="black"></path>
            <path d="M574.87 535.5 a2.63 2.63 0 1 0 5.26 0 a2.63 2.63 0 1 0 -5.26 0zM364.87 325.5 a2.63 2.63 0 1 0 5.26 0 a2.63 2.63 0 1 0 -5.26 0z" fill="black"></path>
            <path d="M637.87 556.5 a2.63 2.63 0 1 0 5.26 0 a2.63 2.63 0 1 0 -5.26 0zM595.87 388.5 a2.63 2.63 0 1 0 5.26 0 a2.63 2.63 0 1 0 -5.26 0z" fill="black"></path>
            <path d="M1288.87 262.5 a2.63 2.63 0 1 0 5.26 0 a2.63 2.63 0 1 0 -5.26 0zM1435.87 493.5 a2.63 2.63 0 1 0 5.26 0 a2.63 2.63 0 1 0 -5.26 0z" fill="black"></path>
            <path d="M931.87 472.5 a2.63 2.63 0 1 0 5.26 0 a2.63 2.63 0 1 0 -5.26 0zM931.87 556.5 a2.63 2.63 0 1 0 5.26 0 a2.63 2.63 0 1 0 -5.26 0z" fill="black"></path>
            <path d="M385.87 388.5 a2.63 2.63 0 1 0 5.26 0 a2.63 2.63 0 1 0 -5.26 0zM595.87 430.5 a2.63 2.63 0 1 0 5.26 0 a2.63 2.63 0 1 0 -5.26 0z" fill="black"></path>
            <path d="M532.87 472.5 a2.63 2.63 0 1 0 5.26 0 a2.63 2.63 0 1 0 -5.26 0zM322.87 157.5 a2.63 2.63 0 1 0 5.26 0 a2.63 2.63 0 1 0 -5.26 0z" fill="black"></path>
            <path d="M700.87 73.5 a2.63 2.63 0 1 0 5.26 0 a2.63 2.63 0 1 0 -5.26 0zM490.87 31.5 a2.63 2.63 0 1 0 5.26 0 a2.63 2.63 0 1 0 -5.26 0z" fill="black"></path>
            <path d="M1267.87 199.5 a2.63 2.63 0 1 0 5.26 0 a2.63 2.63 0 1 0 -5.26 0zM1162.87 304.5 a2.63 2.63 0 1 0 5.26 0 a2.63 2.63 0 1 0 -5.26 0z" fill="black"></path>
            <path d="M574.87 514.5 a2.63 2.63 0 1 0 5.26 0 a2.63 2.63 0 1 0 -5.26 0zM637.87 514.5 a2.63 2.63 0 1 0 5.26 0 a2.63 2.63 0 1 0 -5.26 0z" fill="black"></path>
            <path d="M658.87 262.5 a2.63 2.63 0 1 0 5.26 0 a2.63 2.63 0 1 0 -5.26 0zM721.87 199.5 a2.63 2.63 0 1 0 5.26 0 a2.63 2.63 0 1 0 -5.26 0z" fill="black"></path>
            <path d="M1435.87 262.5 a2.63 2.63 0 1 0 5.26 0 a2.63 2.63 0 1 0 -5.26 0zM1414.87 472.5 a2.63 2.63 0 1 0 5.26 0 a2.63 2.63 0 1 0 -5.26 0z" fill="black"></path>
            <path d="M1246.87 178.5 a2.63 2.63 0 1 0 5.26 0 a2.63 2.63 0 1 0 -5.26 0zM1162.87 283.5 a2.63 2.63 0 1 0 5.26 0 a2.63 2.63 0 1 0 -5.26 0z" fill="black"></path>
            <path d="M1141.87 325.5 a2.63 2.63 0 1 0 5.26 0 a2.63 2.63 0 1 0 -5.26 0zM1435.87 556.5 a2.63 2.63 0 1 0 5.26 0 a2.63 2.63 0 1 0 -5.26 0z" fill="black"></path>
            <path d="M385.87 199.5 a2.63 2.63 0 1 0 5.26 0 a2.63 2.63 0 1 0 -5.26 0zM343.87 157.5 a2.63 2.63 0 1 0 5.26 0 a2.63 2.63 0 1 0 -5.26 0z" fill="black"></path>
            <path d="M847.87 409.5 a2.63 2.63 0 1 0 5.26 0 a2.63 2.63 0 1 0 -5.26 0zM742.87 514.5 a2.63 2.63 0 1 0 5.26 0 a2.63 2.63 0 1 0 -5.26 0z" fill="black"></path>
            <path d="M259.87 157.5 a2.63 2.63 0 1 0 5.26 0 a2.63 2.63 0 1 0 -5.26 0zM217.87 199.5 a2.63 2.63 0 1 0 5.26 0 a2.63 2.63 0 1 0 -5.26 0z" fill="black"></path>
            <path d="M154.87 199.5 a2.63 2.63 0 1 0 5.26 0 a2.63 2.63 0 1 0 -5.26 0zM49.87 262.5 a2.63 2.63 0 1 0 5.26 0 a2.63 2.63 0 1 0 -5.26 0z" fill="black"></path>
            <path d="M175.87 409.5 a2.63 2.63 0 1 0 5.26 0 a2.63 2.63 0 1 0 -5.26 0zM7.87 409.5 a2.63 2.63 0 1 0 5.26 0 a2.63 2.63 0 1 0 -5.26 0z" fill="black"></path>
            <path d="M238.87 262.5 a2.63 2.63 0 1 0 5.26 0 a2.63 2.63 0 1 0 -5.26 0zM238.87 220.5 a2.63 2.63 0 1 0 5.26 0 a2.63 2.63 0 1 0 -5.26 0z" fill="black"></path>
            <path d="M28.87 388.5 a2.63 2.63 0 1 0 5.26 0 a2.63 2.63 0 1 0 -5.26 0zM322.87 325.5 a2.63 2.63 0 1 0 5.26 0 a2.63 2.63 0 1 0 -5.26 0z" fill="black"></path>
            <path d="M1036.87 262.5 a2.63 2.63 0 1 0 5.26 0 a2.63 2.63 0 1 0 -5.26 0zM1057.87 220.5 a2.63 2.63 0 1 0 5.26 0 a2.63 2.63 0 1 0 -5.26 0z" fill="black"></path>
            <path d="M574.87 199.5 a2.63 2.63 0 1 0 5.26 0 a2.63 2.63 0 1 0 -5.26 0zM469.87 94.5 a2.63 2.63 0 1 0 5.26 0 a2.63 2.63 0 1 0 -5.26 0z" fill="black"></path>
            <path d="M1141.87 178.5 a2.63 2.63 0 1 0 5.26 0 a2.63 2.63 0 1 0 -5.26 0zM1141.87 283.5 a2.63 2.63 0 1 0 5.26 0 a2.63 2.63 0 1 0 -5.26 0z" fill="black"></path>
            <path d="M1288.87 136.5 a2.63 2.63 0 1 0 5.26 0 a2.63 2.63 0 1 0 -5.26 0zM1393.87 472.5 a2.63 2.63 0 1 0 5.26 0 a2.63 2.63 0 1 0 -5.26 0z" fill="black"></path>
            <path d="M595.87 31.5 a2.63 2.63 0 1 0 5.26 0 a2.63 2.63 0 1 0 -5.26 0zM805.87 94.5 a2.63 2.63 0 1 0 5.26 0 a2.63 2.63 0 1 0 -5.26 0z" fill="black"></path>
            <path d="M1120.87 514.5 a2.63 2.63 0 1 0 5.26 0 a2.63 2.63 0 1 0 -5.26 0zM1351.87 556.5 a2.63 2.63 0 1 0 5.26 0 a2.63 2.63 0 1 0 -5.26 0z" fill="black"></path>
            <path d="M28.87 514.5 a2.63 2.63 0 1 0 5.26 0 a2.63 2.63 0 1 0 -5.26 0zM91.87 430.5 a2.63 2.63 0 1 0 5.26 0 a2.63 2.63 0 1 0 -5.26 0z" fill="black"></path>
            <path d="M91.87 157.5 a2.63 2.63 0 1 0 5.26 0 a2.63 2.63 0 1 0 -5.26 0zM7.87 241.5 a2.63 2.63 0 1 0 5.26 0 a2.63 2.63 0 1 0 -5.26 0z" fill="black"></path>
            <path d="M133.87 94.5 a2.63 2.63 0 1 0 5.26 0 a2.63 2.63 0 1 0 -5.26 0zM133.87 157.5 a2.63 2.63 0 1 0 5.26 0 a2.63 2.63 0 1 0 -5.26 0z" fill="black"></path>
            <path d="M91.87 493.5 a2.63 2.63 0 1 0 5.26 0 a2.63 2.63 0 1 0 -5.26 0zM385.87 535.5 a2.63 2.63 0 1 0 5.26 0 a2.63 2.63 0 1 0 -5.26 0z" fill="black"></path>
            <path d="M1435.87 472.5 a2.63 2.63 0 1 0 5.26 0 a2.63 2.63 0 1 0 -5.26 0zM1435.87 409.5 a2.63 2.63 0 1 0 5.26 0 a2.63 2.63 0 1 0 -5.26 0z" fill="black"></path>
            <path d="M1015.87 535.5 a2.63 2.63 0 1 0 5.26 0 a2.63 2.63 0 1 0 -5.26 0zM1141.87 346.5 a2.63 2.63 0 1 0 5.26 0 a2.63 2.63 0 1 0 -5.26 0z" fill="black"></path>
            <path d="M280.87 451.5 a2.63 2.63 0 1 0 5.26 0 a2.63 2.63 0 1 0 -5.26 0zM112.87 556.5 a2.63 2.63 0 1 0 5.26 0 a2.63 2.63 0 1 0 -5.26 0z" fill="black"></path>
            <path d="M175.87 493.5 a2.63 2.63 0 1 0 5.26 0 a2.63 2.63 0 1 0 -5.26 0zM133.87 493.5 a2.63 2.63 0 1 0 5.26 0 a2.63 2.63 0 1 0 -5.26 0z" fill="black"></path>
            <path d="M1204.87 535.5 a2.63 2.63 0 1 0 5.26 0 a2.63 2.63 0 1 0 -5.26 0zM1330.87 556.5 a2.63 2.63 0 1 0 5.26 0 a2.63 2.63 0 1 0 -5.26 0z" fill="black"></path>
            <path d="M49.87 346.5 a2.63 2.63 0 1 0 5.26 0 a2.63 2.63 0 1 0 -5.26 0zM7.87 325.5 a2.63 2.63 0 1 0 5.26 0 a2.63 2.63 0 1 0 -5.26 0z" fill="black"></path>
            <path d="M1225.87 367.5 a2.63 2.63 0 1 0 5.26 0 a2.63 2.63 0 1 0 -5.26 0zM1141.87 31.5 a2.63 2.63 0 1 0 5.26 0 a2.63 2.63 0 1 0 -5.26 0z" fill="black"></path>
            <path d="M700.87 451.5 a2.63 2.63 0 1 0 5.26 0 a2.63 2.63 0 1 0 -5.26 0zM742.87 493.5 a2.63 2.63 0 1 0 5.26 0 a2.63 2.63 0 1 0 -5.26 0z" fill="black"></path>
            <path d="M1393.87 52.5 a2.63 2.63 0 1 0 5.26 0 a2.63 2.63 0 1 0 -5.26 0zM1393.87 10.5 a2.63 2.63 0 1 0 5.26 0 a2.63 2.63 0 1 0 -5.26 0z" fill="black"></path>
            <path d="M196.87 535.5 a2.63 2.63 0 1 0 5.26 0 a2.63 2.63 0 1 0 -5.26 0zM553.87 556.5 a2.63 2.63 0 1 0 5.26 0 a2.63 2.63 0 1 0 -5.26 0z" fill="black"></path>
            <path d="M721.87 115.5 a2.63 2.63 0 1 0 5.26 0 a2.63 2.63 0 1 0 -5.26 0zM784.87 115.5 a2.63 2.63 0 1 0 5.26 0 a2.63 2.63 0 1 0 -5.26 0z" fill="black"></path>
            <path d="M910.87 472.5 a2.63 2.63 0 1 0 5.26 0 a2.63 2.63 0 1 0 -5.26 0zM805.87 556.5 a2.63 2.63 0 1 0 5.26 0 a2.63 2.63 0 1 0 -5.26 0z" fill="black"></path>
            <path d="M1414.87 178.5 a2.63 2.63 0 1 0 5.26 0 a2.63 2.63 0 1 0 -5.26 0zM1351.87 136.5 a2.63 2.63 0 1 0 5.26 0 a2.63 2.63 0 1 0 -5.26 0z" fill="black"></path>
            <path d="M427.87 157.5 a2.63 2.63 0 1 0 5.26 0 a2.63 2.63 0 1 0 -5.26 0zM511.87 262.5 a2.63 2.63 0 1 0 5.26 0 a2.63 2.63 0 1 0 -5.26 0z" fill="black"></path>
            <path d="M889.87 283.5 a2.63 2.63 0 1 0 5.26 0 a2.63 2.63 0 1 0 -5.26 0zM826.87 157.5 a2.63 2.63 0 1 0 5.26 0 a2.63 2.63 0 1 0 -5.26 0z" fill="black"></path>
            <path d="M1246.87 493.5 a2.63 2.63 0 1 0 5.26 0 a2.63 2.63 0 1 0 -5.26 0zM1288.87 493.5 a2.63 2.63 0 1 0 5.26 0 a2.63 2.63 0 1 0 -5.26 0z" fill="black"></path>
            <path d="M805.87 262.5 a2.63 2.63 0 1 0 5.26 0 a2.63 2.63 0 1 0 -5.26 0zM658.87 304.5 a2.63 2.63 0 1 0 5.26 0 a2.63 2.63 0 1 0 -5.26 0z" fill="black"></path>
            <path d="M469.87 367.5 a2.63 2.63 0 1 0 5.26 0 a2.63 2.63 0 1 0 -5.26 0zM385.87 325.5 a2.63 2.63 0 1 0 5.26 0 a2.63 2.63 0 1 0 -5.26 0z" fill="black"></path>
            <path d="M1204.87 346.5 a2.63 2.63 0 1 0 5.26 0 a2.63 2.63 0 1 0 -5.26 0zM1246.87 325.5 a2.63 2.63 0 1 0 5.26 0 a2.63 2.63 0 1 0 -5.26 0z" fill="black"></path>
            <path d="M1330.87 304.5 a2.63 2.63 0 1 0 5.26 0 a2.63 2.63 0 1 0 -5.26 0zM1309.87 178.5 a2.63 2.63 0 1 0 5.26 0 a2.63 2.63 0 1 0 -5.26 0z" fill="black"></path>
            <path d="M910.87 136.5 a2.63 2.63 0 1 0 5.26 0 a2.63 2.63 0 1 0 -5.26 0zM868.87 136.5 a2.63 2.63 0 1 0 5.26 0 a2.63 2.63 0 1 0 -5.26 0z" fill="black"></path>
            <path d="M49.87 199.5 a2.63 2.63 0 1 0 5.26 0 a2.63 2.63 0 1 0 -5.26 0zM7.87 199.5 a2.63 2.63 0 1 0 5.26 0 a2.63 2.63 0 1 0 -5.26 0z" fill="black"></path>
            <path d="M1204.87 157.5 a2.63 2.63 0 1 0 5.26 0 a2.63 2.63 0 1 0 -5.26 0zM1267.87 178.5 a2.63 2.63 0 1 0 5.26 0 a2.63 2.63 0 1 0 -5.26 0z" fill="black"></path>
            <path d="M1162.87 388.5 a2.63 2.63 0 1 0 5.26 0 a2.63 2.63 0 1 0 -5.26 0zM1036.87 472.5 a2.63 2.63 0 1 0 5.26 0 a2.63 2.63 0 1 0 -5.26 0z" fill="black"></path>
            <path d="M574.87 451.5 a2.63 2.63 0 1 0 5.26 0 a2.63 2.63 0 1 0 -5.26 0zM553.87 493.5 a2.63 2.63 0 1 0 5.26 0 a2.63 2.63 0 1 0 -5.26 0z" fill="black"></path>
            <path d="M238.87 472.5 a2.63 2.63 0 1 0 5.26 0 a2.63 2.63 0 1 0 -5.26 0zM133.87 472.5 a2.63 2.63 0 1 0 5.26 0 a2.63 2.63 0 1 0 -5.26 0z" fill="black"></path>
            <path d="M343.87 514.5 a2.63 2.63 0 1 0 5.26 0 a2.63 2.63 0 1 0 -5.26 0zM343.87 451.5 a2.63 2.63 0 1 0 5.26 0 a2.63 2.63 0 1 0 -5.26 0z" fill="black"></path>
            <path d="M469.87 115.5 a2.63 2.63 0 1 0 5.26 0 a2.63 2.63 0 1 0 -5.26 0zM637.87 220.5 a2.63 2.63 0 1 0 5.26 0 a2.63 2.63 0 1 0 -5.26 0z" fill="black"></path>
            <path d="M952.87 367.5 a2.63 2.63 0 1 0 5.26 0 a2.63 2.63 0 1 0 -5.26 0zM637.87 430.5 a2.63 2.63 0 1 0 5.26 0 a2.63 2.63 0 1 0 -5.26 0z" fill="black"></path>
            <path d="M1141.87 409.5 a2.63 2.63 0 1 0 5.26 0 a2.63 2.63 0 1 0 -5.26 0zM1162.87 472.5 a2.63 2.63 0 1 0 5.26 0 a2.63 2.63 0 1 0 -5.26 0z" fill="black"></path>
            <path d="M196.87 346.5 a2.63 2.63 0 1 0 5.26 0 a2.63 2.63 0 1 0 -5.26 0zM238.87 325.5 a2.63 2.63 0 1 0 5.26 0 a2.63 2.63 0 1 0 -5.26 0z" fill="black"></path>
            <path d="M742.87 31.5 a2.63 2.63 0 1 0 5.26 0 a2.63 2.63 0 1 0 -5.26 0zM616.87 31.5 a2.63 2.63 0 1 0 5.26 0 a2.63 2.63 0 1 0 -5.26 0z" fill="black"></path>
            <path d="M847.87 199.5 a2.63 2.63 0 1 0 5.26 0 a2.63 2.63 0 1 0 -5.26 0zM952.87 346.5 a2.63 2.63 0 1 0 5.26 0 a2.63 2.63 0 1 0 -5.26 0z" fill="black"></path>
            <path d="M952.87 283.5 a2.63 2.63 0 1 0 5.26 0 a2.63 2.63 0 1 0 -5.26 0zM868.87 157.5 a2.63 2.63 0 1 0 5.26 0 a2.63 2.63 0 1 0 -5.26 0z" fill="black"></path>
            <path d="M70.87 514.5 a2.63 2.63 0 1 0 5.26 0 a2.63 2.63 0 1 0 -5.26 0zM7.87 556.5 a2.63 2.63 0 1 0 5.26 0 a2.63 2.63 0 1 0 -5.26 0z" fill="black"></path>
            <path d="M742.87 325.5 a2.63 2.63 0 1 0 5.26 0 a2.63 2.63 0 1 0 -5.26 0zM742.87 283.5 a2.63 2.63 0 1 0 5.26 0 a2.63 2.63 0 1 0 -5.26 0z" fill="black"></path>
            <path d="M448.87 388.5 a2.63 2.63 0 1 0 5.26 0 a2.63 2.63 0 1 0 -5.26 0zM532.87 451.5 a2.63 2.63 0 1 0 5.26 0 a2.63 2.63 0 1 0 -5.26 0z" fill="black"></path>
            <path d="M196.87 556.5 a2.63 2.63 0 1 0 5.26 0 a2.63 2.63 0 1 0 -5.26 0zM322.87 514.5 a2.63 2.63 0 1 0 5.26 0 a2.63 2.63 0 1 0 -5.26 0z" fill="black"></path>
            <path d="M196.87 367.5 a2.63 2.63 0 1 0 5.26 0 a2.63 2.63 0 1 0 -5.26 0zM49.87 325.5 a2.63 2.63 0 1 0 5.26 0 a2.63 2.63 0 1 0 -5.26 0z" fill="black"></path>
            <path d="M721.87 451.5 a2.63 2.63 0 1 0 5.26 0 a2.63 2.63 0 1 0 -5.26 0zM931.87 388.5 a2.63 2.63 0 1 0 5.26 0 a2.63 2.63 0 1 0 -5.26 0z" fill="black"></path>
            <path d="M1267.87 31.5 a2.63 2.63 0 1 0 5.26 0 a2.63 2.63 0 1 0 -5.26 0zM1204.87 10.5 a2.63 2.63 0 1 0 5.26 0 a2.63 2.63 0 1 0 -5.26 0z" fill="black"></path>
            <path d="M553.87 31.5 a2.63 2.63 0 1 0 5.26 0 a2.63 2.63 0 1 0 -5.26 0zM595.87 52.5 a2.63 2.63 0 1 0 5.26 0 a2.63 2.63 0 1 0 -5.26 0z" fill="black"></path>
            <path d="M742.87 94.5 a2.63 2.63 0 1 0 5.26 0 a2.63 2.63 0 1 0 -5.26 0zM532.87 94.5 a2.63 2.63 0 1 0 5.26 0 a2.63 2.63 0 1 0 -5.26 0z" fill="black"></path>
            <path d="M448.87 535.5 a2.63 2.63 0 1 0 5.26 0 a2.63 2.63 0 1 0 -5.26 0zM511.87 514.5 a2.63 2.63 0 1 0 5.26 0 a2.63 2.63 0 1 0 -5.26 0z" fill="black"></path>
            <path d="M868.87 304.5 a2.63 2.63 0 1 0 5.26 0 a2.63 2.63 0 1 0 -5.26 0zM637.87 346.5 a2.63 2.63 0 1 0 5.26 0 a2.63 2.63 0 1 0 -5.26 0z" fill="black"></path>
            <path d="M7.87 115.5 a2.63 2.63 0 1 0 5.26 0 a2.63 2.63 0 1 0 -5.26 0zM70.87 178.5 a2.63 2.63 0 1 0 5.26 0 a2.63 2.63 0 1 0 -5.26 0z" fill="black"></path>
            <path d="M1435.87 115.5 a2.63 2.63 0 1 0 5.26 0 a2.63 2.63 0 1 0 -5.26 0zM1372.87 430.5 a2.63 2.63 0 1 0 5.26 0 a2.63 2.63 0 1 0 -5.26 0z" fill="black"></path>
            <path d="M343.87 52.5 a2.63 2.63 0 1 0 5.26 0 a2.63 2.63 0 1 0 -5.26 0zM385.87 52.5 a2.63 2.63 0 1 0 5.26 0 a2.63 2.63 0 1 0 -5.26 0z" fill="black"></path>
            <path d="M1099.87 409.5 a2.63 2.63 0 1 0 5.26 0 a2.63 2.63 0 1 0 -5.26 0zM1057.87 451.5 a2.63 2.63 0 1 0 5.26 0 a2.63 2.63 0 1 0 -5.26 0z" fill="black"></path>
            <path d="M1393.87 73.5 a2.63 2.63 0 1 0 5.26 0 a2.63 2.63 0 1 0 -5.26 0zM1435.87 10.5 a2.63 2.63 0 1 0 5.26 0 a2.63 2.63 0 1 0 -5.26 0z" fill="black"></path>
            <path d="M70.87 367.5 a2.63 2.63 0 1 0 5.26 0 a2.63 2.63 0 1 0 -5.26 0zM7.87 367.5 a2.63 2.63 0 1 0 5.26 0 a2.63 2.63 0 1 0 -5.26 0z" fill="black"></path>
            <path d="M196.87 157.5 a2.63 2.63 0 1 0 5.26 0 a2.63 2.63 0 1 0 -5.26 0zM238.87 115.5 a2.63 2.63 0 1 0 5.26 0 a2.63 2.63 0 1 0 -5.26 0z" fill="black"></path>
            <path d="M700.87 283.5 a2.63 2.63 0 1 0 5.26 0 a2.63 2.63 0 1 0 -5.26 0zM721.87 325.5 a2.63 2.63 0 1 0 5.26 0 a2.63 2.63 0 1 0 -5.26 0z" fill="black"></path>
            <path d="M322.87 367.5 a2.63 2.63 0 1 0 5.26 0 a2.63 2.63 0 1 0 -5.26 0zM196.87 409.5 a2.63 2.63 0 1 0 5.26 0 a2.63 2.63 0 1 0 -5.26 0z" fill="black"></path>
            <path d="M1351.87 10.5 a2.63 2.63 0 1 0 5.26 0 a2.63 2.63 0 1 0 -5.26 0zM1225.87 31.5 a2.63 2.63 0 1 0 5.26 0 a2.63 2.63 0 1 0 -5.26 0z" fill="black"></path>
            <path d="M553.87 220.5 a2.63 2.63 0 1 0 5.26 0 a2.63 2.63 0 1 0 -5.26 0zM469.87 136.5 a2.63 2.63 0 1 0 5.26 0 a2.63 2.63 0 1 0 -5.26 0z" fill="black"></path>
            <path d="M1267.87 10.5 a2.63 2.63 0 1 0 5.26 0 a2.63 2.63 0 1 0 -5.26 0zM1330.87 31.5 a2.63 2.63 0 1 0 5.26 0 a2.63 2.63 0 1 0 -5.26 0z" fill="black"></path>
            <path d="M175.87 325.5 a2.63 2.63 0 1 0 5.26 0 a2.63 2.63 0 1 0 -5.26 0zM70.87 325.5 a2.63 2.63 0 1 0 5.26 0 a2.63 2.63 0 1 0 -5.26 0z" fill="black"></path>
            <path d="M280.87 199.5 a2.63 2.63 0 1 0 5.26 0 a2.63 2.63 0 1 0 -5.26 0zM259.87 283.5 a2.63 2.63 0 1 0 5.26 0 a2.63 2.63 0 1 0 -5.26 0z" fill="black"></path>
            <path d="M532.87 367.5 a2.63 2.63 0 1 0 5.26 0 a2.63 2.63 0 1 0 -5.26 0zM427.87 241.5 a2.63 2.63 0 1 0 5.26 0 a2.63 2.63 0 1 0 -5.26 0z" fill="black"></path>
            <path d="M973.87 52.5 a2.63 2.63 0 1 0 5.26 0 a2.63 2.63 0 1 0 -5.26 0zM952.87 94.5 a2.63 2.63 0 1 0 5.26 0 a2.63 2.63 0 1 0 -5.26 0z" fill="black"></path>
            <path d="M1078.87 535.5 a2.63 2.63 0 1 0 5.26 0 a2.63 2.63 0 1 0 -5.26 0zM1036.87 493.5 a2.63 2.63 0 1 0 5.26 0 a2.63 2.63 0 1 0 -5.26 0z" fill="black"></path>
            <path d="M1141.87 94.5 a2.63 2.63 0 1 0 5.26 0 a2.63 2.63 0 1 0 -5.26 0zM1162.87 52.5 a2.63 2.63 0 1 0 5.26 0 a2.63 2.63 0 1 0 -5.26 0z" fill="black"></path>
            <path d="M511.87 52.5 a2.63 2.63 0 1 0 5.26 0 a2.63 2.63 0 1 0 -5.26 0zM574.87 52.5 a2.63 2.63 0 1 0 5.26 0 a2.63 2.63 0 1 0 -5.26 0z" fill="black"></path>
            <path d="M1015.87 430.5 a2.63 2.63 0 1 0 5.26 0 a2.63 2.63 0 1 0 -5.26 0zM952.87 472.5 a2.63 2.63 0 1 0 5.26 0 a2.63 2.63 0 1 0 -5.26 0z" fill="black"></path>
            <path d="M1120.87 94.5 a2.63 2.63 0 1 0 5.26 0 a2.63 2.63 0 1 0 -5.26 0zM973.87 220.5 a2.63 2.63 0 1 0 5.26 0 a2.63 2.63 0 1 0 -5.26 0z" fill="black"></path>
            <path d="M994.87 388.5 a2.63 2.63 0 1 0 5.26 0 a2.63 2.63 0 1 0 -5.26 0zM910.87 451.5 a2.63 2.63 0 1 0 5.26 0 a2.63 2.63 0 1 0 -5.26 0z" fill="black"></path>
            <path d="M1162.87 199.5 a2.63 2.63 0 1 0 5.26 0 a2.63 2.63 0 1 0 -5.26 0zM1141.87 262.5 a2.63 2.63 0 1 0 5.26 0 a2.63 2.63 0 1 0 -5.26 0z" fill="black"></path>
            <path d="M679.87 409.5 a2.63 2.63 0 1 0 5.26 0 a2.63 2.63 0 1 0 -5.26 0zM658.87 451.5 a2.63 2.63 0 1 0 5.26 0 a2.63 2.63 0 1 0 -5.26 0z" fill="black"></path>
            <path d="M1120.87 409.5 a2.63 2.63 0 1 0 5.26 0 a2.63 2.63 0 1 0 -5.26 0zM1141.87 367.5 a2.63 2.63 0 1 0 5.26 0 a2.63 2.63 0 1 0 -5.26 0z" fill="black"></path>
            <path d="M343.87 115.5 a2.63 2.63 0 1 0 5.26 0 a2.63 2.63 0 1 0 -5.26 0zM406.87 178.5 a2.63 2.63 0 1 0 5.26 0 a2.63 2.63 0 1 0 -5.26 0z" fill="black"></path>
            <path d="M1393.87 346.5 a2.63 2.63 0 1 0 5.26 0 a2.63 2.63 0 1 0 -5.26 0zM1372.87 409.5 a2.63 2.63 0 1 0 5.26 0 a2.63 2.63 0 1 0 -5.26 0z" fill="black"></path>
            <path d="M826.87 451.5 a2.63 2.63 0 1 0 5.26 0 a2.63 2.63 0 1 0 -5.26 0zM763.87 514.5 a2.63 2.63 0 1 0 5.26 0 a2.63 2.63 0 1 0 -5.26 0z" fill="black"></path>
            <path d="M427.87 115.5 a2.63 2.63 0 1 0 5.26 0 a2.63 2.63 0 1 0 -5.26 0zM406.87 157.5 a2.63 2.63 0 1 0 5.26 0 a2.63 2.63 0 1 0 -5.26 0z" fill="black"></path>
            <path d="M805.87 241.5 a2.63 2.63 0 1 0 5.26 0 a2.63 2.63 0 1 0 -5.26 0zM868.87 283.5 a2.63 2.63 0 1 0 5.26 0 a2.63 2.63 0 1 0 -5.26 0z" fill="black"></path>
            <path d="M154.87 73.5 a2.63 2.63 0 1 0 5.26 0 a2.63 2.63 0 1 0 -5.26 0zM238.87 10.5 a2.63 2.63 0 1 0 5.26 0 a2.63 2.63 0 1 0 -5.26 0z" fill="black"></path>
            <path d="M868.87 409.5 a2.63 2.63 0 1 0 5.26 0 a2.63 2.63 0 1 0 -5.26 0zM847.87 472.5 a2.63 2.63 0 1 0 5.26 0 a2.63 2.63 0 1 0 -5.26 0z" fill="black"></path>
            <path d="M784.87 325.5 a2.63 2.63 0 1 0 5.26 0 a2.63 2.63 0 1 0 -5.26 0zM763.87 283.5 a2.63 2.63 0 1 0 5.26 0 a2.63 2.63 0 1 0 -5.26 0z" fill="black"></path>
            <path d="M1078.87 157.5 a2.63 2.63 0 1 0 5.26 0 a2.63 2.63 0 1 0 -5.26 0zM994.87 220.5 a2.63 2.63 0 1 0 5.26 0 a2.63 2.63 0 1 0 -5.26 0z" fill="black"></path>
            <path d="M931.87 346.5 a2.63 2.63 0 1 0 5.26 0 a2.63 2.63 0 1 0 -5.26 0zM847.87 346.5 a2.63 2.63 0 1 0 5.26 0 a2.63 2.63 0 1 0 -5.26 0z" fill="black"></path>
            <path d="M112.87 94.5 a2.63 2.63 0 1 0 5.26 0 a2.63 2.63 0 1 0 -5.26 0zM7.87 10.5 a2.63 2.63 0 1 0 5.26 0 a2.63 2.63 0 1 0 -5.26 0z" fill="black"></path>
            <path d="M973.87 178.5 a2.63 2.63 0 1 0 5.26 0 a2.63 2.63 0 1 0 -5.26 0zM1036.87 136.5 a2.63 2.63 0 1 0 5.26 0 a2.63 2.63 0 1 0 -5.26 0z" fill="black"></path>
            <path d="M805.87 10.5 a2.63 2.63 0 1 0 5.26 0 a2.63 2.63 0 1 0 -5.26 0zM847.87 52.5 a2.63 2.63 0 1 0 5.26 0 a2.63 2.63 0 1 0 -5.26 0z" fill="black"></path>
            <path d="M1057.87 388.5 a2.63 2.63 0 1 0 5.26 0 a2.63 2.63 0 1 0 -5.26 0zM1015.87 262.5 a2.63 2.63 0 1 0 5.26 0 a2.63 2.63 0 1 0 -5.26 0z" fill="black"></path>
            <path d="M1309.87 346.5 a2.63 2.63 0 1 0 5.26 0 a2.63 2.63 0 1 0 -5.26 0zM1372.87 472.5 a2.63 2.63 0 1 0 5.26 0 a2.63 2.63 0 1 0 -5.26 0z" fill="black"></path>
            <path d="M994.87 31.5 a2.63 2.63 0 1 0 5.26 0 a2.63 2.63 0 1 0 -5.26 0zM868.87 94.5 a2.63 2.63 0 1 0 5.26 0 a2.63 2.63 0 1 0 -5.26 0z" fill="black"></path>
            <path d="M154.87 556.5 a2.63 2.63 0 1 0 5.26 0 a2.63 2.63 0 1 0 -5.26 0zM133.87 514.5 a2.63 2.63 0 1 0 5.26 0 a2.63 2.63 0 1 0 -5.26 0z" fill="black"></path>
            <path d="M1435.87 514.5 a2.63 2.63 0 1 0 5.26 0 a2.63 2.63 0 1 0 -5.26 0zM1393.87 514.5 a2.63 2.63 0 1 0 5.26 0 a2.63 2.63 0 1 0 -5.26 0z" fill="black"></path>
            <path d="M7.87 157.5 a2.63 2.63 0 1 0 5.26 0 a2.63 2.63 0 1 0 -5.26 0zM49.87 178.5 a2.63 2.63 0 1 0 5.26 0 a2.63 2.63 0 1 0 -5.26 0z" fill="black"></path>
            <path d="M1015.87 283.5 a2.63 2.63 0 1 0 5.26 0 a2.63 2.63 0 1 0 -5.26 0zM1057.87 367.5 a2.63 2.63 0 1 0 5.26 0 a2.63 2.63 0 1 0 -5.26 0z" fill="black"></path>
            <path d="M574.87 283.5 a2.63 2.63 0 1 0 5.26 0 a2.63 2.63 0 1 0 -5.26 0zM637.87 283.5 a2.63 2.63 0 1 0 5.26 0 a2.63 2.63 0 1 0 -5.26 0z" fill="black"></path>
            <path d="M280.87 241.5 a2.63 2.63 0 1 0 5.26 0 a2.63 2.63 0 1 0 -5.26 0zM406.87 283.5 a2.63 2.63 0 1 0 5.26 0 a2.63 2.63 0 1 0 -5.26 0z" fill="black"></path>
            <path d="M343.87 262.5 a2.63 2.63 0 1 0 5.26 0 a2.63 2.63 0 1 0 -5.26 0zM385.87 283.5 a2.63 2.63 0 1 0 5.26 0 a2.63 2.63 0 1 0 -5.26 0z" fill="black"></path>
            <path d="M1309.87 220.5 a2.63 2.63 0 1 0 5.26 0 a2.63 2.63 0 1 0 -5.26 0zM1330.87 367.5 a2.63 2.63 0 1 0 5.26 0 a2.63 2.63 0 1 0 -5.26 0z" fill="black"></path>
            <path d="M889.87 94.5 a2.63 2.63 0 1 0 5.26 0 a2.63 2.63 0 1 0 -5.26 0zM952.87 52.5 a2.63 2.63 0 1 0 5.26 0 a2.63 2.63 0 1 0 -5.26 0z" fill="black"></path>
            <path d="M196.87 73.5 a2.63 2.63 0 1 0 5.26 0 a2.63 2.63 0 1 0 -5.26 0zM217.87 10.5 a2.63 2.63 0 1 0 5.26 0 a2.63 2.63 0 1 0 -5.26 0z" fill="black"></path>
            <path d="M154.87 31.5 a2.63 2.63 0 1 0 5.26 0 a2.63 2.63 0 1 0 -5.26 0zM175.87 73.5 a2.63 2.63 0 1 0 5.26 0 a2.63 2.63 0 1 0 -5.26 0z" fill="black"></path>
            <path d="M28.87 430.5 a2.63 2.63 0 1 0 5.26 0 a2.63 2.63 0 1 0 -5.26 0zM7.87 535.5 a2.63 2.63 0 1 0 5.26 0 a2.63 2.63 0 1 0 -5.26 0z" fill="black"></path>
            <path d="M700.87 157.5 a2.63 2.63 0 1 0 5.26 0 a2.63 2.63 0 1 0 -5.26 0zM616.87 157.5 a2.63 2.63 0 1 0 5.26 0 a2.63 2.63 0 1 0 -5.26 0z" fill="black"></path>
            <path d="M679.87 451.5 a2.63 2.63 0 1 0 5.26 0 a2.63 2.63 0 1 0 -5.26 0zM826.87 388.5 a2.63 2.63 0 1 0 5.26 0 a2.63 2.63 0 1 0 -5.26 0z" fill="black"></path>
            <path d="M511.87 325.5 a2.63 2.63 0 1 0 5.26 0 a2.63 2.63 0 1 0 -5.26 0zM553.87 388.5 a2.63 2.63 0 1 0 5.26 0 a2.63 2.63 0 1 0 -5.26 0z" fill="black"></path>
            <path d="M1372.87 325.5 a2.63 2.63 0 1 0 5.26 0 a2.63 2.63 0 1 0 -5.26 0zM1372.87 388.5 a2.63 2.63 0 1 0 5.26 0 a2.63 2.63 0 1 0 -5.26 0z" fill="black"></path>
            <path d="M1141.87 472.5 a2.63 2.63 0 1 0 5.26 0 a2.63 2.63 0 1 0 -5.26 0zM1078.87 472.5 a2.63 2.63 0 1 0 5.26 0 a2.63 2.63 0 1 0 -5.26 0z" fill="black"></path>
            <path d="M1393.87 220.5 a2.63 2.63 0 1 0 5.26 0 a2.63 2.63 0 1 0 -5.26 0zM1393.87 262.5 a2.63 2.63 0 1 0 5.26 0 a2.63 2.63 0 1 0 -5.26 0z" fill="black"></path>
            <path d="M364.87 388.5 a2.63 2.63 0 1 0 5.26 0 a2.63 2.63 0 1 0 -5.26 0zM364.87 346.5 a2.63 2.63 0 1 0 5.26 0 a2.63 2.63 0 1 0 -5.26 0z" fill="black"></path>
            <path d="M322.87 199.5 a2.63 2.63 0 1 0 5.26 0 a2.63 2.63 0 1 0 -5.26 0zM280.87 220.5 a2.63 2.63 0 1 0 5.26 0 a2.63 2.63 0 1 0 -5.26 0z" fill="black"></path>
            <path d="M679.87 115.5 a2.63 2.63 0 1 0 5.26 0 a2.63 2.63 0 1 0 -5.26 0zM616.87 115.5 a2.63 2.63 0 1 0 5.26 0 a2.63 2.63 0 1 0 -5.26 0z" fill="black"></path>
            <path d="M700.87 388.5 a2.63 2.63 0 1 0 5.26 0 a2.63 2.63 0 1 0 -5.26 0zM805.87 388.5 a2.63 2.63 0 1 0 5.26 0 a2.63 2.63 0 1 0 -5.26 0z" fill="black"></path>
            <path d="M7.87 493.5 a2.63 2.63 0 1 0 5.26 0 a2.63 2.63 0 1 0 -5.26 0zM7.87 430.5 a2.63 2.63 0 1 0 5.26 0 a2.63 2.63 0 1 0 -5.26 0z" fill="black"></path>
            <path d="M826.87 325.5 a2.63 2.63 0 1 0 5.26 0 a2.63 2.63 0 1 0 -5.26 0zM784.87 283.5 a2.63 2.63 0 1 0 5.26 0 a2.63 2.63 0 1 0 -5.26 0z" fill="black"></path>
            <path d="M1204.87 199.5 a2.63 2.63 0 1 0 5.26 0 a2.63 2.63 0 1 0 -5.26 0zM1162.87 157.5 a2.63 2.63 0 1 0 5.26 0 a2.63 2.63 0 1 0 -5.26 0z" fill="black"></path>
            <path d="M553.87 304.5 a2.63 2.63 0 1 0 5.26 0 a2.63 2.63 0 1 0 -5.26 0zM553.87 346.5 a2.63 2.63 0 1 0 5.26 0 a2.63 2.63 0 1 0 -5.26 0z" fill="black"></path>
            <path d="M910.87 535.5 a2.63 2.63 0 1 0 5.26 0 a2.63 2.63 0 1 0 -5.26 0zM826.87 556.5 a2.63 2.63 0 1 0 5.26 0 a2.63 2.63 0 1 0 -5.26 0z" fill="black"></path>
            <path d="M322.87 556.5 a2.63 2.63 0 1 0 5.26 0 a2.63 2.63 0 1 0 -5.26 0zM217.87 556.5 a2.63 2.63 0 1 0 5.26 0 a2.63 2.63 0 1 0 -5.26 0z" fill="black"></path>
            <path d="M406.87 472.5 a2.63 2.63 0 1 0 5.26 0 a2.63 2.63 0 1 0 -5.26 0zM469.87 472.5 a2.63 2.63 0 1 0 5.26 0 a2.63 2.63 0 1 0 -5.26 0z" fill="black"></path>
            <path d="M280.87 388.5 a2.63 2.63 0 1 0 5.26 0 a2.63 2.63 0 1 0 -5.26 0zM217.87 409.5 a2.63 2.63 0 1 0 5.26 0 a2.63 2.63 0 1 0 -5.26 0z" fill="black"></path>
            <path d="M595.87 262.5 a2.63 2.63 0 1 0 5.26 0 a2.63 2.63 0 1 0 -5.26 0zM511.87 304.5 a2.63 2.63 0 1 0 5.26 0 a2.63 2.63 0 1 0 -5.26 0z" fill="black"></path>
            <path d="M1078.87 136.5 a2.63 2.63 0 1 0 5.26 0 a2.63 2.63 0 1 0 -5.26 0zM1120.87 115.5 a2.63 2.63 0 1 0 5.26 0 a2.63 2.63 0 1 0 -5.26 0z" fill="black"></path>
            <path d="M280.87 409.5 a2.63 2.63 0 1 0 5.26 0 a2.63 2.63 0 1 0 -5.26 0zM238.87 409.5 a2.63 2.63 0 1 0 5.26 0 a2.63 2.63 0 1 0 -5.26 0z" fill="black"></path>
            <path d="M238.87 136.5 a2.63 2.63 0 1 0 5.26 0 a2.63 2.63 0 1 0 -5.26 0zM217.87 178.5 a2.63 2.63 0 1 0 5.26 0 a2.63 2.63 0 1 0 -5.26 0z" fill="black"></path>
            <path d="M112.87 73.5 a2.63 2.63 0 1 0 5.26 0 a2.63 2.63 0 1 0 -5.26 0zM91.87 10.5 a2.63 2.63 0 1 0 5.26 0 a2.63 2.63 0 1 0 -5.26 0z" fill="black"></path>
            <path d="M658.87 556.5 a2.63 2.63 0 1 0 5.26 0 a2.63 2.63 0 1 0 -5.26 0zM742.87 556.5 a2.63 2.63 0 1 0 5.26 0 a2.63 2.63 0 1 0 -5.26 0z" fill="black"></path>
            <path d="M973.87 409.5 a2.63 2.63 0 1 0 5.26 0 a2.63 2.63 0 1 0 -5.26 0zM1036.87 409.5 a2.63 2.63 0 1 0 5.26 0 a2.63 2.63 0 1 0 -5.26 0z" fill="black"></path>
            <path d="M889.87 514.5 a2.63 2.63 0 1 0 5.26 0 a2.63 2.63 0 1 0 -5.26 0zM847.87 535.5 a2.63 2.63 0 1 0 5.26 0 a2.63 2.63 0 1 0 -5.26 0z" fill="black"></path>
            <path d="M784.87 94.5 a2.63 2.63 0 1 0 5.26 0 a2.63 2.63 0 1 0 -5.26 0zM721.87 73.5 a2.63 2.63 0 1 0 5.26 0 a2.63 2.63 0 1 0 -5.26 0z" fill="black"></path>
            <path d="M1141.87 430.5 a2.63 2.63 0 1 0 5.26 0 a2.63 2.63 0 1 0 -5.26 0zM1078.87 451.5 a2.63 2.63 0 1 0 5.26 0 a2.63 2.63 0 1 0 -5.26 0z" fill="black"></path>
            <path d="M1225.87 115.5 a2.63 2.63 0 1 0 5.26 0 a2.63 2.63 0 1 0 -5.26 0zM1183.87 136.5 a2.63 2.63 0 1 0 5.26 0 a2.63 2.63 0 1 0 -5.26 0z" fill="black"></path>
            <path d="M742.87 241.5 a2.63 2.63 0 1 0 5.26 0 a2.63 2.63 0 1 0 -5.26 0zM784.87 199.5 a2.63 2.63 0 1 0 5.26 0 a2.63 2.63 0 1 0 -5.26 0z" fill="black"></path>
            <path d="M112.87 10.5 a2.63 2.63 0 1 0 5.26 0 a2.63 2.63 0 1 0 -5.26 0zM112.87 52.5 a2.63 2.63 0 1 0 5.26 0 a2.63 2.63 0 1 0 -5.26 0z" fill="black"></path>
            <path d="M784.87 388.5 a2.63 2.63 0 1 0 5.26 0 a2.63 2.63 0 1 0 -5.26 0zM721.87 388.5 a2.63 2.63 0 1 0 5.26 0 a2.63 2.63 0 1 0 -5.26 0z" fill="black"></path>
            <path d="M448.87 493.5 a2.63 2.63 0 1 0 5.26 0 a2.63 2.63 0 1 0 -5.26 0zM490.87 514.5 a2.63 2.63 0 1 0 5.26 0 a2.63 2.63 0 1 0 -5.26 0z" fill="black"></path>
            <path d="M49.87 73.5 a2.63 2.63 0 1 0 5.26 0 a2.63 2.63 0 1 0 -5.26 0zM7.87 31.5 a2.63 2.63 0 1 0 5.26 0 a2.63 2.63 0 1 0 -5.26 0z" fill="black"></path>
            <path d="M868.87 346.5 a2.63 2.63 0 1 0 5.26 0 a2.63 2.63 0 1 0 -5.26 0zM910.87 325.5 a2.63 2.63 0 1 0 5.26 0 a2.63 2.63 0 1 0 -5.26 0z" fill="black"></path>
            <path d="M175.87 52.5 a2.63 2.63 0 1 0 5.26 0 a2.63 2.63 0 1 0 -5.26 0zM175.87 10.5 a2.63 2.63 0 1 0 5.26 0 a2.63 2.63 0 1 0 -5.26 0z" fill="black"></path>
            <path d="M1057.87 10.5 a2.63 2.63 0 1 0 5.26 0 a2.63 2.63 0 1 0 -5.26 0zM1099.87 10.5 a2.63 2.63 0 1 0 5.26 0 a2.63 2.63 0 1 0 -5.26 0z" fill="black"></path>
            <path d="M406.87 73.5 a2.63 2.63 0 1 0 5.26 0 a2.63 2.63 0 1 0 -5.26 0zM385.87 136.5 a2.63 2.63 0 1 0 5.26 0 a2.63 2.63 0 1 0 -5.26 0z" fill="black"></path>
            <path d="M1036.87 10.5 a2.63 2.63 0 1 0 5.26 0 a2.63 2.63 0 1 0 -5.26 0zM994.87 52.5 a2.63 2.63 0 1 0 5.26 0 a2.63 2.63 0 1 0 -5.26 0z" fill="black"></path>
            <path d="M1267.87 556.5 a2.63 2.63 0 1 0 5.26 0 a2.63 2.63 0 1 0 -5.26 0zM1309.87 556.5 a2.63 2.63 0 1 0 5.26 0 a2.63 2.63 0 1 0 -5.26 0z" fill="black"></path>
            <path d="M1057.87 304.5 a2.63 2.63 0 1 0 5.26 0 a2.63 2.63 0 1 0 -5.26 0zM1057.87 262.5 a2.63 2.63 0 1 0 5.26 0 a2.63 2.63 0 1 0 -5.26 0z" fill="black"></path>
            <path d="M1414.87 325.5 a2.63 2.63 0 1 0 5.26 0 a2.63 2.63 0 1 0 -5.26 0zM1414.87 283.5 a2.63 2.63 0 1 0 5.26 0 a2.63 2.63 0 1 0 -5.26 0z" fill="black"></path>
            <path d="M1183.87 409.5 a2.63 2.63 0 1 0 5.26 0 a2.63 2.63 0 1 0 -5.26 0zM1183.87 472.5 a2.63 2.63 0 1 0 5.26 0 a2.63 2.63 0 1 0 -5.26 0z" fill="black"></path>
            <path d="M154.87 367.5 a2.63 2.63 0 1 0 5.26 0 a2.63 2.63 0 1 0 -5.26 0zM112.87 367.5 a2.63 2.63 0 1 0 5.26 0 a2.63 2.63 0 1 0 -5.26 0z" fill="black"></path>
        </mask>
    </defs>
</svg>